<svg viewBox="0.0000 0.0000 1440.0000 879.0000" fill="none" xmlns="http://www.w3.org/2000/svg" id="74977b2d" x="0" y="0"><g id="Link4Coders Hero Section 2" data-node-id="1:676" clip-path="url(#clip0_1_676)"><g id="Group 10" data-node-id="1:677" opacity="0.1">
<g id="Group 8" data-node-id="1:678" style="mix-blend-mode:plus-lighter" opacity="0.1">
<g id="Ellipse 1" data-node-id="1:679" style="mix-blend-mode:plus-lighter" filter="url(#filter0_f_1_676)">
<ellipse cx="274.5" cy="24.5" rx="365.5" ry="184.5" fill="white"/>
</g>
<g id="Ellipse 2" data-node-id="1:680" style="mix-blend-mode:plus-lighter" filter="url(#filter1_f_1_676)">
<ellipse cx="1165.5" cy="24.5" rx="365.5" ry="184.5" fill="white"/>
</g>
<g id="Ellipse 3" data-node-id="1:681" style="mix-blend-mode:plus-lighter" filter="url(#filter2_f_1_676)">
<ellipse cx="651.5" cy="24.5" rx="365.5" ry="184.5" fill="white"/>
</g>
</g>
<g id="Group 9" data-node-id="1:682" style="mix-blend-mode:plus-lighter">
<g id="Ellipse 1_2" data-node-id="1:683" style="mix-blend-mode:plus-lighter" filter="url(#filter3_f_1_676)">
<ellipse cx="274.5" cy="-122.5" rx="365.5" ry="184.5" fill="white"/>
</g>
<g id="Ellipse 2_2" data-node-id="1:684" style="mix-blend-mode:plus-lighter" filter="url(#filter4_f_1_676)">
<ellipse cx="1165.5" cy="-122.5" rx="365.5" ry="184.5" fill="white"/>
</g>
<g id="Ellipse 3_2" data-node-id="1:685" style="mix-blend-mode:plus-lighter" filter="url(#filter5_f_1_676)">
<ellipse cx="651.5" cy="-122.5" rx="365.5" ry="184.5" fill="#A4DCFF"/>
</g>
</g>
</g><g id="Union" data-node-id="1:686" style="mix-blend-mode:plus-lighter" opacity="0.05">
<path d="M-51.6611 -201.661H33.0791V-288H34.0791V-201.661H118.819V-288H119.819V-201.661H204.56V-288H205.56V-201.661H290.3V-288H291.3V-201.661H376.04V-288H377.04V-201.661H461.78V-288H462.78V-201.661H547.52V-288H548.52V-201.661H633.26V-288H634.26V-201.661H719V-288H720V-201.661H804.74V-288H805.74V-201.661H890.48V-288H891.48V-201.661H976.22V-288H977.22V-201.661H1061.96V-288H1062.96V-201.661H1147.7V-288H1148.7V-201.661H1233.44V-288H1234.44V-201.661H1319.18V-288H1320.18V-201.661H1404.92V-288H1405.92V-201.661H1490.66V-288H1491.66V-201.661H1578V-200.661H1491.66V-115.921H1578V-114.921H1491.66V-30.1807H1578V-29.1807H1491.66V55.5596H1578V56.5596H1491.66V141.3H1578V142.3H1491.66V227.04H1578V228.04H1491.66V312.779H1578V313.779H1491.66V398.52H1578V399.52H1491.66V484.26H1578V485.26H1491.66V570H1578V571H1491.66V655.74H1578V656.74H1491.66V741.48H1578V742.48H1491.66V827.22L1578 827.221V828.221L1491.66 828.22V912.96H1578V913.96H1491.66V998.7H1578V999.7H1491.66V1084.44H1578V1085.44H1491.66V1170.18H1578V1171.18H1491.66V1255.92H1578V1256.92H1491.66V1341.66H1578V1342.66H1491.66V1429H1490.66V1342.66H1405.92V1429H1404.92V1342.66H1320.18V1429H1319.18V1342.66H1234.44V1429H1233.44V1342.66H1148.7V1429H1147.7V1342.66H1062.96V1429H1061.96V1342.66H977.22V1429H976.22V1342.66H891.48V1429H890.48V1342.66H805.74V1429H804.74V1342.66H720V1429H719V1342.66H634.26V1429H633.26V1342.66H548.52V1429H547.52V1342.66H462.78V1429H461.78V1342.66H377.04V1429H376.04V1342.66H291.3V1429H290.3V1342.66H205.56V1429H204.56V1342.66H119.819V1429H118.819V1342.66H34.0791V1429H33.0791V1342.66H-51.6611V1429H-52.6611V1342.66H-139V1341.66H-52.6611V1256.92H-139V1255.92H-52.6611V1171.18H-139V1170.18H-52.6611V1085.44H-139V1084.44H-52.6611V999.7H-139V998.7H-52.6611V913.96H-139V912.96H-52.6611V828.22H-139V827.22H-52.6611V742.48H-139V741.48H-52.6611V656.74H-139V655.74H-52.6611V571H-139V570H-52.6611V485.26H-139V484.26H-52.6611V399.52H-139V398.52H-52.6611V313.779H-139V312.779H-52.6611V228.04H-139V227.04H-52.6611V142.3H-139V141.3H-52.6611V56.5596H-139V55.5596H-52.6611V-29.1807H-139V-30.1807H-52.6611V-114.921H-139V-115.921H-52.6611V-200.661H-139V-201.661H-52.6611V-288H-51.6611V-201.661ZM-51.6611 1341.66H33.0791V1256.92H-51.6611V1341.66ZM34.0791 1341.66H118.819V1256.92H34.0791V1341.66ZM119.819 1341.66H204.56V1256.92H119.819V1341.66ZM205.56 1341.66H290.3V1256.92H205.56V1341.66ZM291.3 1341.66H376.04V1256.92H291.3V1341.66ZM377.04 1341.66H461.78V1256.92H377.04V1341.66ZM462.78 1341.66H547.52V1256.92H462.78V1341.66ZM548.52 1341.66H633.26V1256.92H548.52V1341.66ZM634.26 1341.66H719V1256.92H634.26V1341.66ZM720 1341.66H804.74V1256.92H720V1341.66ZM805.74 1341.66H890.48V1256.92H805.74V1341.66ZM891.48 1341.66H976.22V1256.92H891.48V1341.66ZM977.22 1341.66H1061.96V1256.92H977.22V1341.66ZM1062.96 1341.66H1147.7V1256.92H1062.96V1341.66ZM1148.7 1341.66H1233.44V1256.92H1148.7V1341.66ZM1234.44 1341.66H1319.18V1256.92H1234.44V1341.66ZM1320.18 1341.66H1404.92V1256.92H1320.18V1341.66ZM1405.92 1341.66H1490.66V1256.92H1405.92V1341.66ZM-51.6611 1255.92H33.0791V1171.18H-51.6611V1255.92ZM34.0791 1255.92H118.819V1171.18H34.0791V1255.92ZM119.819 1255.92H204.56V1171.18H119.819V1255.92ZM205.56 1255.92H290.3V1171.18H205.56V1255.92ZM291.3 1255.92H376.04V1171.18H291.3V1255.92ZM377.04 1255.92H461.78V1171.18H377.04V1255.92ZM462.78 1255.92H547.52V1171.18H462.78V1255.92ZM548.52 1255.92H633.26V1171.18H548.52V1255.92ZM634.26 1255.92H719V1171.18H634.26V1255.92ZM720 1255.92H804.74V1171.18H720V1255.92ZM805.74 1255.92H890.48V1171.18H805.74V1255.92ZM891.48 1255.92H976.22V1171.18H891.48V1255.92ZM977.22 1255.92H1061.96V1171.18H977.22V1255.92ZM1062.96 1255.92H1147.7V1171.18H1062.96V1255.92ZM1148.7 1255.92H1233.44V1171.18H1148.7V1255.92ZM1234.44 1255.92H1319.18V1171.18H1234.44V1255.92ZM1320.18 1255.92H1404.92V1171.18H1320.18V1255.92ZM1405.92 1255.92H1490.66V1171.18H1405.92V1255.92ZM-51.6611 1170.18H33.0791V1085.44H-51.6611V1170.18ZM34.0791 1170.18H118.819V1085.44H34.0791V1170.18ZM119.819 1170.18H204.56V1085.44H119.819V1170.18ZM205.56 1170.18H290.3V1085.44H205.56V1170.18ZM291.3 1170.18H376.04V1085.44H291.3V1170.18ZM377.04 1170.18H461.78V1085.44H377.04V1170.18ZM462.78 1170.18H547.52V1085.44H462.78V1170.18ZM548.52 1170.18H633.26V1085.44H548.52V1170.18ZM634.26 1170.18H719V1085.44H634.26V1170.18ZM720 1170.18H804.74V1085.44H720V1170.18ZM805.74 1170.18H890.48V1085.44H805.74V1170.18ZM891.48 1170.18H976.22V1085.44H891.48V1170.18ZM977.22 1170.18H1061.96V1085.44H977.22V1170.18ZM1062.96 1170.18H1147.7V1085.44H1062.96V1170.18ZM1148.7 1170.18H1233.44V1085.44H1148.7V1170.18ZM1234.44 1170.18H1319.18V1085.44H1234.44V1170.18ZM1320.18 1170.18H1404.92V1085.44H1320.18V1170.18ZM1405.92 1170.18H1490.66V1085.44H1405.92V1170.18ZM-51.6611 1084.44H33.0791V999.7H-51.6611V1084.44ZM34.0791 1084.44H118.819V999.7H34.0791V1084.44ZM119.819 1084.44H204.56V999.7H119.819V1084.44ZM205.56 1084.44H290.3V999.7H205.56V1084.44ZM291.3 1084.44H376.04V999.7H291.3V1084.44ZM377.04 1084.44H461.78V999.7H377.04V1084.44ZM462.78 1084.44H547.52V999.7H462.78V1084.44ZM548.52 1084.44H633.26V999.7H548.52V1084.44ZM634.26 1084.44H719V999.7H634.26V1084.44ZM720 1084.44H804.74V999.7H720V1084.44ZM805.74 1084.44H890.48V999.7H805.74V1084.44ZM891.48 1084.44H976.22V999.7H891.48V1084.44ZM977.22 1084.44H1061.96V999.7H977.22V1084.44ZM1062.96 1084.44H1147.7V999.7H1062.96V1084.44ZM1148.7 1084.44H1233.44V999.7H1148.7V1084.44ZM1234.44 1084.44H1319.18V999.7H1234.44V1084.44ZM1320.18 1084.44H1404.92V999.7H1320.18V1084.44ZM1405.92 1084.44H1490.66V999.7H1405.92V1084.44ZM-51.6611 998.7H33.0791V913.96H-51.6611V998.7ZM34.0791 998.7H118.819V913.96H34.0791V998.7ZM119.819 998.7H204.56V913.96H119.819V998.7ZM205.56 998.7H290.3V913.96H205.56V998.7ZM291.3 998.7H376.04V913.96H291.3V998.7ZM377.04 998.7H461.78V913.96H377.04V998.7ZM462.78 998.7H547.52V913.96H462.78V998.7ZM548.52 998.7H633.26V913.96H548.52V998.7ZM634.26 998.7H719V913.96H634.26V998.7ZM720 998.7H804.74V913.96H720V998.7ZM805.74 998.7H890.48V913.96H805.74V998.7ZM891.48 998.7H976.22V913.96H891.48V998.7ZM977.22 998.7H1061.96V913.96H977.22V998.7ZM1062.96 998.7H1147.7V913.96H1062.96V998.7ZM1148.7 998.7H1233.44V913.96H1148.7V998.7ZM1234.44 998.7H1319.18V913.96H1234.44V998.7ZM1320.18 998.7H1404.92V913.96H1320.18V998.7ZM1405.92 998.7H1490.66V913.96H1405.92V998.7ZM-51.6611 912.96H33.0791V828.22H-51.6611V912.96ZM34.0791 912.96H118.819V828.22H34.0791V912.96ZM119.819 912.96H204.56V828.22H119.819V912.96ZM205.56 912.96H290.3V828.22H205.56V912.96ZM291.3 912.96H376.04V828.22H291.3V912.96ZM377.04 912.96H461.78V828.22H377.04V912.96ZM462.78 912.96H547.52V828.22H462.78V912.96ZM548.52 912.96H633.26V828.22H548.52V912.96ZM634.26 912.96H719V828.22H634.26V912.96ZM720 912.96H804.74V828.22H720V912.96ZM805.74 912.96H890.48V828.22H805.74V912.96ZM891.48 912.96H976.22V828.22H891.48V912.96ZM977.22 912.96H1061.96V828.22H977.22V912.96ZM1062.96 912.96H1147.7V828.22H1062.96V912.96ZM1148.7 912.96H1233.44V828.22H1148.7V912.96ZM1234.44 912.96H1319.18V828.22H1234.44V912.96ZM1320.18 912.96H1404.92V828.22H1320.18V912.96ZM1405.92 912.96H1490.66V828.22H1405.92V912.96ZM-51.6611 827.22H33.0791V742.48H-51.6611V827.22ZM34.0791 827.22H118.819V742.48H34.0791V827.22ZM119.819 827.22H204.56V742.48H119.819V827.22ZM205.56 827.22H290.3V742.48H205.56V827.22ZM291.3 827.22H376.04V742.48H291.3V827.22ZM377.04 827.22H461.78V742.48H377.04V827.22ZM462.78 827.22H547.52V742.48H462.78V827.22ZM548.52 827.22H633.26V742.48H548.52V827.22ZM634.26 827.22H719V742.48H634.26V827.22ZM720 827.22H804.74V742.48H720V827.22ZM805.74 827.22H890.48V742.48H805.74V827.22ZM891.48 827.22H976.22V742.48H891.48V827.22ZM977.22 827.22H1061.96V742.48H977.22V827.22ZM1062.96 827.22H1147.7V742.48H1062.96V827.22ZM1148.7 827.22H1233.44V742.48H1148.7V827.22ZM1234.44 827.22H1319.18V742.48H1234.44V827.22ZM1320.18 827.22H1404.92V742.48H1320.18V827.22ZM1405.92 827.22H1490.66V742.48H1405.92V827.22ZM-51.6611 741.48H33.0791V656.74H-51.6611V741.48ZM34.0791 741.48H118.819V656.74H34.0791V741.48ZM119.819 741.48H204.56V656.74H119.819V741.48ZM205.56 741.48H290.3V656.74H205.56V741.48ZM291.3 741.48H376.04V656.74H291.3V741.48ZM377.04 741.48H461.78V656.74H377.04V741.48ZM462.78 741.48H547.52V656.74H462.78V741.48ZM548.52 741.48H633.26V656.74H548.52V741.48ZM634.26 741.48H719V656.74H634.26V741.48ZM720 741.48H804.74V656.74H720V741.48ZM805.74 741.48H890.48V656.74H805.74V741.48ZM891.48 741.48H976.22V656.74H891.48V741.48ZM977.22 741.48H1061.96V656.74H977.22V741.48ZM1062.96 741.48H1147.7V656.74H1062.96V741.48ZM1148.7 741.48H1233.44V656.74H1148.7V741.48ZM1234.44 741.48H1319.18V656.74H1234.44V741.48ZM1320.18 741.48H1404.92V656.74H1320.18V741.48ZM1405.92 741.48H1490.66V656.74H1405.92V741.48ZM-51.6611 655.74H33.0791V571H-51.6611V655.74ZM34.0791 655.74H118.819V571H34.0791V655.74ZM119.819 655.74H204.56V571H119.819V655.74ZM205.56 655.74H290.3V571H205.56V655.74ZM291.3 655.74H376.04V571H291.3V655.74ZM377.04 655.74H461.78V571H377.04V655.74ZM462.78 655.74H547.52V571H462.78V655.74ZM548.52 655.74H633.26V571H548.52V655.74ZM634.26 655.74H719V571H634.26V655.74ZM720 655.74H804.74V571H720V655.74ZM805.74 655.74H890.48V571H805.74V655.74ZM891.48 655.74H976.22V571H891.48V655.74ZM977.22 655.74H1061.96V571H977.22V655.74ZM1062.96 655.74H1147.7V571H1062.96V655.74ZM1148.7 655.74H1233.44V571H1148.7V655.74ZM1234.44 655.74H1319.18V571H1234.44V655.74ZM1320.18 655.74H1404.92V571H1320.18V655.74ZM1405.92 655.74H1490.66V571H1405.92V655.74ZM-51.6611 570H33.0791V485.26H-51.6611V570ZM34.0791 570H118.819V485.26H34.0791V570ZM119.819 570H204.56V485.26H119.819V570ZM205.56 570H290.3V485.26H205.56V570ZM291.3 570H376.04V485.26H291.3V570ZM377.04 570H461.78V485.26H377.04V570ZM462.78 570H547.52V485.26H462.78V570ZM548.52 570H633.26V485.26H548.52V570ZM634.26 570H719V485.26H634.26V570ZM720 570H804.74V485.26H720V570ZM805.74 570H890.48V485.26H805.74V570ZM891.48 570H976.22V485.26H891.48V570ZM977.22 570H1061.96V485.26H977.22V570ZM1062.96 570H1147.7V485.26H1062.96V570ZM1148.7 570H1233.44V485.26H1148.7V570ZM1234.44 570H1319.18V485.26H1234.44V570ZM1320.18 570H1404.92V485.26H1320.18V570ZM1405.92 570H1490.66V485.26H1405.92V570ZM-51.6611 484.26H33.0791V399.52H-51.6611V484.26ZM34.0791 484.26H118.819V399.52H34.0791V484.26ZM119.819 484.26H204.56V399.52H119.819V484.26ZM205.56 484.26H290.3V399.52H205.56V484.26ZM291.3 484.26H376.04V399.52H291.3V484.26ZM377.04 484.26H461.78V399.52H377.04V484.26ZM462.78 484.26H547.52V399.52H462.78V484.26ZM548.52 484.26H633.26V399.52H548.52V484.26ZM634.26 484.26H719V399.52H634.26V484.26ZM720 484.26H804.74V399.52H720V484.26ZM805.74 484.26H890.48V399.52H805.74V484.26ZM891.48 484.26H976.22V399.52H891.48V484.26ZM977.22 484.26H1061.96V399.52H977.22V484.26ZM1062.96 484.26H1147.7V399.52H1062.96V484.26ZM1148.7 484.26H1233.44V399.52H1148.7V484.26ZM1234.44 484.26H1319.18V399.52H1234.44V484.26ZM1320.18 484.26H1404.92V399.52H1320.18V484.26ZM1405.92 484.26H1490.66V399.52H1405.92V484.26ZM-51.6611 398.52H33.0791V313.779H-51.6611V398.52ZM34.0791 398.52H118.819V313.779H34.0791V398.52ZM119.819 398.52H204.56V313.779H119.819V398.52ZM205.56 398.52H290.3V313.779H205.56V398.52ZM291.3 398.52H376.04V313.779H291.3V398.52ZM377.04 398.52H461.78V313.779H377.04V398.52ZM462.78 398.52H547.52V313.779H462.78V398.52ZM548.52 398.52H633.26V313.779H548.52V398.52ZM634.26 398.52H719V313.779H634.26V398.52ZM720 398.52H804.74V313.779H720V398.52ZM805.74 398.52H890.48V313.779H805.74V398.52ZM891.48 398.52H976.22V313.779H891.48V398.52ZM977.22 398.52H1061.96V313.779H977.22V398.52ZM1062.96 398.52H1147.7V313.779H1062.96V398.52ZM1148.7 398.52H1233.44V313.779H1148.7V398.52ZM1234.44 398.52H1319.18V313.779H1234.44V398.52ZM1320.18 398.52H1404.92V313.779H1320.18V398.52ZM1405.92 398.52H1490.66V313.779H1405.92V398.52ZM-51.6611 312.779H33.0791V228.04H-51.6611V312.779ZM34.0791 312.779H118.819V228.04H34.0791V312.779ZM119.819 312.779H204.56V228.04H119.819V312.779ZM205.56 312.779H290.3V228.04H205.56V312.779ZM291.3 312.779H376.04V228.04H291.3V312.779ZM377.04 312.779H461.78V228.04H377.04V312.779ZM462.78 312.779H547.52V228.04H462.78V312.779ZM548.52 312.779H633.26V228.04H548.52V312.779ZM634.26 312.779H719V228.04H634.26V312.779ZM720 312.779H804.74V228.04H720V312.779ZM805.74 312.779H890.48V228.04H805.74V312.779ZM891.48 312.779H976.22V228.04H891.48V312.779ZM977.22 312.779H1061.96V228.04H977.22V312.779ZM1062.96 312.779H1147.7V228.04H1062.96V312.779ZM1148.7 312.779H1233.44V228.04H1148.7V312.779ZM1234.44 312.779H1319.18V228.04H1234.44V312.779ZM1320.18 312.779H1404.92V228.04H1320.18V312.779ZM1405.92 312.779H1490.66V228.04H1405.92V312.779ZM-51.6611 227.04H33.0791V142.3H-51.6611V227.04ZM34.0791 227.04H118.819V142.3H34.0791V227.04ZM119.819 227.04H204.56V142.3H119.819V227.04ZM205.56 227.04H290.3V142.3H205.56V227.04ZM291.3 227.04H376.04V142.3H291.3V227.04ZM377.04 227.04H461.78V142.3H377.04V227.04ZM462.78 227.04H547.52V142.3H462.78V227.04ZM548.52 227.04H633.26V142.3H548.52V227.04ZM634.26 227.04H719V142.3H634.26V227.04ZM720 227.04H804.74V142.3H720V227.04ZM805.74 227.04H890.48V142.3H805.74V227.04ZM891.48 227.04H976.22V142.3H891.48V227.04ZM977.22 227.04H1061.96V142.3H977.22V227.04ZM1062.96 227.04H1147.7V142.3H1062.96V227.04ZM1148.7 227.04H1233.44V142.3H1148.7V227.04ZM1234.44 227.04H1319.18V142.3H1234.44V227.04ZM1320.18 227.04H1404.92V142.3H1320.18V227.04ZM1405.92 227.04H1490.66V142.3H1405.92V227.04ZM-51.6611 141.3H33.0791V56.5596H-51.6611V141.3ZM34.0791 141.3H118.819V56.5596H34.0791V141.3ZM119.819 141.3H204.56V56.5596H119.819V141.3ZM205.56 141.3H290.3V56.5596H205.56V141.3ZM291.3 141.3H376.04V56.5596H291.3V141.3ZM377.04 141.3H461.78V56.5596H377.04V141.3ZM462.78 141.3H547.52V56.5596H462.78V141.3ZM548.52 141.3H633.26V56.5596H548.52V141.3ZM634.26 141.3H719V56.5596H634.26V141.3ZM720 141.3H804.74V56.5596H720V141.3ZM805.74 141.3H890.48V56.5596H805.74V141.3ZM891.48 141.3H976.22V56.5596H891.48V141.3ZM977.22 141.3H1061.96V56.5596H977.22V141.3ZM1062.96 141.3H1147.7V56.5596H1062.96V141.3ZM1148.7 141.3H1233.44V56.5596H1148.7V141.3ZM1234.44 141.3H1319.18V56.5596H1234.44V141.3ZM1320.18 141.3H1404.92V56.5596H1320.18V141.3ZM1405.92 141.3H1490.66V56.5596H1405.92V141.3ZM-51.6611 55.5596H33.0791V-29.1807H-51.6611V55.5596ZM34.0791 55.5596H118.819V-29.1807H34.0791V55.5596ZM119.819 55.5596H204.56V-29.1807H119.819V55.5596ZM205.56 55.5596H290.3V-29.1807H205.56V55.5596ZM291.3 55.5596H376.04V-29.1807H291.3V55.5596ZM377.04 55.5596H461.78V-29.1807H377.04V55.5596ZM462.78 55.5596H547.52V-29.1807H462.78V55.5596ZM548.52 55.5596H633.26V-29.1807H548.52V55.5596ZM634.26 55.5596H719V-29.1807H634.26V55.5596ZM720 55.5596H804.74V-29.1807H720V55.5596ZM805.74 55.5596H890.48V-29.1807H805.74V55.5596ZM891.48 55.5596H976.22V-29.1807H891.48V55.5596ZM977.22 55.5596H1061.96V-29.1807H977.22V55.5596ZM1062.96 55.5596H1147.7V-29.1807H1062.96V55.5596ZM1148.7 55.5596H1233.44V-29.1807H1148.7V55.5596ZM1234.44 55.5596H1319.18V-29.1807H1234.44V55.5596ZM1320.18 55.5596H1404.92V-29.1807H1320.18V55.5596ZM1405.92 55.5596H1490.66V-29.1807H1405.92V55.5596ZM-51.6611 -30.1807H33.0791V-114.921H-51.6611V-30.1807ZM34.0791 -30.1807H118.819V-114.921H34.0791V-30.1807ZM119.819 -30.1807H204.56V-114.921H119.819V-30.1807ZM205.56 -30.1807H290.3V-114.921H205.56V-30.1807ZM291.3 -30.1807H376.04V-114.921H291.3V-30.1807ZM377.04 -30.1807H461.78V-114.921H377.04V-30.1807ZM462.78 -30.1807H547.52V-114.921H462.78V-30.1807ZM548.52 -30.1807H633.26V-114.921H548.52V-30.1807ZM634.26 -30.1807H719V-114.921H634.26V-30.1807ZM720 -30.1807H804.74V-114.921H720V-30.1807ZM805.74 -30.1807H890.48V-114.921H805.74V-30.1807ZM891.48 -30.1807H976.22V-114.921H891.48V-30.1807ZM977.22 -30.1807H1061.96V-114.921H977.22V-30.1807ZM1062.96 -30.1807H1147.7V-114.921H1062.96V-30.1807ZM1148.7 -30.1807H1233.44V-114.921H1148.7V-30.1807ZM1234.44 -30.1807H1319.18V-114.921H1234.44V-30.1807ZM1320.18 -30.1807H1404.92V-114.921H1320.18V-30.1807ZM1405.92 -30.1807H1490.66V-114.921H1405.92V-30.1807ZM-51.6611 -115.921H33.0791V-200.661H-51.6611V-115.921ZM34.0791 -115.921H118.819V-200.661H34.0791V-115.921ZM119.819 -115.921H204.56V-200.661H119.819V-115.921ZM205.56 -115.921H290.3V-200.661H205.56V-115.921ZM291.3 -115.921H376.04V-200.661H291.3V-115.921ZM377.04 -115.921H461.78V-200.661H377.04V-115.921ZM462.78 -115.921H547.52V-200.661H462.78V-115.921ZM548.52 -115.921H633.26V-200.661H548.52V-115.921ZM634.26 -115.921H719V-200.661H634.26V-115.921ZM720 -115.921H804.74V-200.661H720V-115.921ZM805.74 -115.921H890.48V-200.661H805.74V-115.921ZM891.48 -115.921H976.22V-200.661H891.48V-115.921ZM977.22 -115.921H1061.96V-200.661H977.22V-115.921ZM1062.96 -115.921H1147.7V-200.661H1062.96V-115.921ZM1148.7 -115.921H1233.44V-200.661H1148.7V-115.921ZM1234.44 -115.921H1319.18V-200.661H1234.44V-115.921ZM1320.18 -115.921H1404.92V-200.661H1320.18V-115.921ZM1405.92 -115.921H1490.66V-200.661H1405.92V-115.921Z" fill="url(#paint0_linear_1_676)"/>
</g></g><defs><clipPath id="clip0_1_676">
<rect width="1440" height="879" fill="white"/>
</clipPath><filter id="filter0_f_1_676" x="-502.9" y="-571.9" width="1554.8" height="1192.8" filterUnits="userSpaceOnUse" color-interpolation-filters="sRGB">
<feFlood flood-opacity="0" result="BackgroundImageFix"/>
<feBlend mode="normal" in="SourceGraphic" in2="BackgroundImageFix" result="shape"/>
<feGaussianBlur stdDeviation="205.95" result="effect1_foregroundBlur_1_676"/>
</filter><filter id="filter1_f_1_676" x="388.1" y="-571.9" width="1554.8" height="1192.8" filterUnits="userSpaceOnUse" color-interpolation-filters="sRGB">
<feFlood flood-opacity="0" result="BackgroundImageFix"/>
<feBlend mode="normal" in="SourceGraphic" in2="BackgroundImageFix" result="shape"/>
<feGaussianBlur stdDeviation="205.95" result="effect1_foregroundBlur_1_676"/>
</filter><filter id="filter2_f_1_676" x="-125.9" y="-571.9" width="1554.8" height="1192.8" filterUnits="userSpaceOnUse" color-interpolation-filters="sRGB">
<feFlood flood-opacity="0" result="BackgroundImageFix"/>
<feBlend mode="normal" in="SourceGraphic" in2="BackgroundImageFix" result="shape"/>
<feGaussianBlur stdDeviation="205.95" result="effect1_foregroundBlur_1_676"/>
</filter><filter id="filter3_f_1_676" x="-352.5" y="-568.5" width="1254" height="892" filterUnits="userSpaceOnUse" color-interpolation-filters="sRGB">
<feFlood flood-opacity="0" result="BackgroundImageFix"/>
<feBlend mode="normal" in="SourceGraphic" in2="BackgroundImageFix" result="shape"/>
<feGaussianBlur stdDeviation="130.75" result="effect1_foregroundBlur_1_676"/>
</filter><filter id="filter4_f_1_676" x="538.5" y="-568.5" width="1254" height="892" filterUnits="userSpaceOnUse" color-interpolation-filters="sRGB">
<feFlood flood-opacity="0" result="BackgroundImageFix"/>
<feBlend mode="normal" in="SourceGraphic" in2="BackgroundImageFix" result="shape"/>
<feGaussianBlur stdDeviation="130.75" result="effect1_foregroundBlur_1_676"/>
</filter><filter id="filter5_f_1_676" x="24.5" y="-568.5" width="1254" height="892" filterUnits="userSpaceOnUse" color-interpolation-filters="sRGB">
<feFlood flood-opacity="0" result="BackgroundImageFix"/>
<feBlend mode="normal" in="SourceGraphic" in2="BackgroundImageFix" result="shape"/>
<feGaussianBlur stdDeviation="130.75" result="effect1_foregroundBlur_1_676"/>
</filter><linearGradient id="paint0_linear_1_676" x1="719.5" y1="-83.0884" x2="719.5" y2="678.012" gradientUnits="userSpaceOnUse">
<stop stop-color="white"/>
<stop offset="1" stop-color="white" stop-opacity="0"/>
</linearGradient></defs></svg>