<svg width="197" height="200" viewBox="0 0 197 200" fill="none" xmlns="http://www.w3.org/2000/svg">
<rect x="0.875121" y="1.29535" width="195.21" height="197.591" rx="11.3079" fill="#18181A" stroke="url(#paint0_linear_1_893)" stroke-width="1.1903"/>
<rect x="15.754" y="53.0735" width="165.452" height="11.903" rx="3.57091" fill="#28282B"/>
<rect x="15.7541" y="100.686" width="96.4147" height="11.903" rx="3.57091" fill="#28282B"/>
<rect x="15.7541" y="76.8796" width="141.646" height="11.903" rx="3.57091" fill="#28282B"/>
<rect x="78.8403" y="25.6965" width="102.366" height="11.903" rx="3.57091" fill="#28282B"/>
<path d="M17.4501 35.9353V23.2943H22.1459C25.3597 23.2943 26.6809 24.4191 26.6809 26.4724C26.6809 28.0793 25.931 29.0434 24.3777 29.4541C26.0739 29.829 26.9488 30.7396 26.9488 32.4537C26.9488 34.7033 25.4847 35.9353 22.1816 35.9353H17.4501ZM18.575 24.2584V28.9899H22.1816C24.3598 28.9899 25.5561 28.2578 25.5561 26.5617C25.5561 25.0619 24.5741 24.2584 22.1637 24.2584H18.575ZM18.575 29.9362V34.9354H22.0745C24.6991 34.9354 25.7882 34.0606 25.7882 32.3822C25.7882 30.6325 24.4848 29.9362 22.1459 29.9362H18.575ZM28.4425 35.9353V22.3837H29.5674V35.9353H28.4425ZM36.0885 36.1853C32.8747 36.1853 31.0535 34.2391 31.0535 31.0074V30.811C31.0535 29.6862 31.2677 28.7399 31.7141 27.9543C32.6068 26.3474 34.1423 25.5082 36.0885 25.5082C37.0705 25.5082 37.9275 25.7225 38.6952 26.151C40.2307 26.9902 41.1235 28.5792 41.1235 30.811V31.0074C41.1235 32.0787 40.9271 32.9893 40.5164 33.7749C39.6951 35.3282 38.1775 36.1853 36.0885 36.1853ZM36.0885 35.1676C38.5703 35.1676 39.9986 33.5785 39.9986 30.9896V30.8289C39.9986 29.9362 39.8379 29.2041 39.4987 28.5257C38.8024 27.2401 37.6061 26.4902 36.1063 26.4902C35.3564 26.4902 34.678 26.6509 34.1066 27.008C32.9282 27.7043 32.214 28.9899 32.214 30.8289V30.9896C32.214 33.5428 33.6246 35.1676 36.0885 35.1676ZM46.2447 40.6489C42.9951 40.6489 41.7453 39.7205 41.7453 38.0957C41.7453 36.9173 42.4416 36.0603 44.0128 35.6496C42.763 35.4532 42.2095 34.8462 42.2095 33.9177C42.2095 32.9893 42.9594 32.2573 44.5306 32.0252C42.9773 31.6145 42.1917 30.6146 42.1917 29.0434V29.0256C42.1917 27.258 43.3165 25.9903 45.6198 25.6868C45.9947 25.6332 46.4768 25.5975 46.9231 25.5797C47.6373 25.5261 48.1908 25.4368 48.5479 25.294C49.2978 24.9547 49.4942 24.437 49.4942 23.6871V23.455H50.6905V23.7585C50.6905 24.1691 50.619 24.5441 50.4762 24.8476C50.1905 25.4368 49.4406 25.8118 47.8694 25.8832C47.923 25.8832 47.9408 25.901 47.9944 25.901C48.6193 25.9725 49.1371 26.1689 49.5478 26.4724C50.3869 27.0973 50.7976 28.0257 50.7976 28.9542V29.0256C50.7976 31.1324 49.155 32.4537 46.4232 32.4537H45.8876C43.8343 32.4537 43.2272 32.9536 43.2272 33.6678C43.2272 34.3462 43.7629 34.739 45.1198 34.739H47.8694C50.4583 34.739 51.5653 35.7389 51.5653 37.4172C51.5653 38.0243 51.4046 38.5599 51.0654 39.0599C50.3691 40.0419 48.9229 40.6489 46.4411 40.6489H46.2447ZM46.4232 31.5788C48.5301 31.5788 49.6727 30.5789 49.6727 29.0077V28.9899C49.6727 28.3114 49.5121 27.8115 49.2264 27.4365C48.655 26.6866 47.7087 26.401 46.6553 26.401C46.3518 26.401 46.1554 26.3831 45.8876 26.4367C44.2092 26.6331 43.2987 27.6151 43.3165 29.0256V29.0434C43.3165 30.6503 44.4056 31.5788 46.4232 31.5788ZM46.4411 39.6669C47.4409 39.6669 48.2265 39.5776 48.8157 39.3812C50.012 38.9706 50.4941 38.31 50.4941 37.4708C50.4941 36.3638 49.7799 35.6853 47.8159 35.6853H46.2982C43.9771 35.7032 42.8702 36.4709 42.8702 37.81V37.8279C42.8702 38.9527 43.8343 39.6669 46.1554 39.6669H46.4411ZM56.2835 36.1853C53.6589 36.1853 51.8735 35.0069 51.6056 32.6322H52.8197C52.8912 33.2036 53.1054 33.7035 53.4089 34.0784C54.0874 34.8283 55.1051 35.1854 56.3014 35.1854C57.0691 35.1854 57.6583 35.0961 58.1047 34.8819C59.0153 34.4712 59.3902 33.7928 59.3902 33.0429C59.3902 32.5608 59.2117 32.2037 58.9082 31.9716C58.2654 31.4895 57.1941 31.3288 56.0157 31.1681C55.0516 31.0253 54.0874 30.8646 53.3197 30.4897C52.5341 30.1147 52.052 29.4898 52.052 28.4185C52.052 27.9186 52.177 27.4365 52.4448 27.008C52.9626 26.0974 54.0874 25.5082 55.9086 25.5082C58.4975 25.5082 60.0509 26.7402 60.283 28.6506H59.1224C58.9617 27.2401 57.7476 26.4545 55.9086 26.4545C55.2123 26.4545 54.6766 26.5438 54.266 26.7402C53.4804 27.0973 53.1768 27.7222 53.1768 28.365C53.1768 28.847 53.3554 29.2041 53.6589 29.4362C54.3017 29.9183 55.4087 30.079 56.5514 30.2397C57.5334 30.3825 58.4796 30.5611 59.2652 30.9182C60.033 31.2931 60.5151 31.9359 60.5151 33.0072C60.5151 33.5785 60.3722 34.0963 60.0687 34.5784C59.4974 35.5604 58.2654 36.1853 56.2835 36.1853Z" fill="#7C7C88"/>
<rect x="15.754" y="126.872" width="53.5637" height="52.3734" rx="3.57091" fill="#28282B"/>
<rect x="75.2693" y="126.872" width="52.3734" height="52.3734" rx="3.57091" fill="#28282B"/>
<rect x="133.594" y="126.872" width="47.6122" height="52.3734" rx="3.57091" fill="#28282B"/>
<defs>
<linearGradient id="paint0_linear_1_893" x1="98.4801" y1="0.700195" x2="98.4801" y2="199.481" gradientUnits="userSpaceOnUse">
<stop stop-color="#252529"/>
<stop offset="1" stop-color="#252529" stop-opacity="0"/>
</linearGradient>
</defs>
</svg>
