<svg width="197" height="130" viewBox="0 0 197 130" fill="none" xmlns="http://www.w3.org/2000/svg">
<rect x="0.778105" y="0.681334" width="195.21" height="128.553" rx="11.3079" fill="#18181A" stroke="url(#paint0_linear_1_876)" stroke-width="1.1903"/>
<path d="M38.2703 14.3699C50.1051 14.3699 59.6979 24.0002 59.698 35.8806C59.698 45.3801 53.5655 53.4392 45.0623 56.2888C43.9749 56.5004 43.5886 55.8304 43.5886 55.2546C43.5886 54.5502 43.616 52.2305 43.616 49.3542C43.6159 47.3485 42.9305 46.036 42.1619 45.3718C46.9343 44.8388 51.9421 43.0206 51.9421 34.7585C51.9421 32.4098 51.1149 30.4893 49.741 28.9841C49.9607 28.4401 50.6943 26.2551 49.5271 23.2937C49.5271 23.2937 47.7299 22.7152 43.6404 25.4978C41.929 25.0184 40.0936 24.782 38.2751 24.7712C36.4514 24.7793 34.6194 25.0182 32.9109 25.4949C28.8312 22.7208 27.0302 23.2873 27.0193 23.2908C25.8544 26.2501 26.588 28.4385 26.8103 28.9822C25.4393 30.4872 24.6033 32.4071 24.6033 34.7556C24.6033 42.9964 29.6066 44.8418 34.363 45.3855C33.7498 45.9237 33.1956 46.8718 33.0027 48.2615C31.7814 48.8132 28.6766 49.7615 26.7644 46.4753C26.7476 46.4449 25.6185 44.4102 23.4841 44.2585C23.4841 44.2585 21.3926 44.2314 23.3396 45.5652C23.3622 45.5759 24.7533 46.2467 25.7175 48.7117C25.7175 48.7117 26.9763 52.8954 32.9353 51.5964C32.946 53.3907 32.9646 54.7431 32.9646 55.2546C32.9646 55.8251 32.5738 56.4889 31.5027 56.2908C22.9861 53.4439 16.8474 45.3828 16.8474 35.8806C16.8475 24.0002 26.4407 14.3699 38.2703 14.3699Z" fill="url(#paint1_linear_1_876)"/>
<rect x="65.65" y="21.5117" width="113.079" height="11.903" rx="3.57091" fill="#28282B"/>
<rect x="65.65" y="38.1758" width="77.3698" height="11.903" rx="3.57091" fill="#28282B"/>
<rect x="16.8474" y="100.072" width="161.881" height="11.903" rx="3.57091" fill="#28282B"/>
<path d="M21.6903 88.4683C20.8229 88.4683 20.1001 88.3382 19.5219 88.049C18.3943 87.4852 17.8594 86.4733 17.8594 85.2156V85.1577H18.8279V85.2156C18.8279 86.6034 19.7965 87.6298 21.7192 87.6298C22.2975 87.6298 22.8324 87.5286 23.295 87.3117C24.2202 86.8925 24.7985 86.0396 24.7985 84.7819C24.7985 82.9603 23.6275 82.064 21.965 82.064C20.4471 82.064 19.5219 82.8302 19.0014 83.6398L18.9436 83.7121L18.0184 83.4663L18.7268 78.0307H25.2755C25.2755 78.2765 25.2466 78.4644 25.1888 78.58C25.0731 78.8258 24.7262 78.8692 23.9744 78.8692H19.4785L18.9725 82.6134C19.6086 81.8327 20.5483 81.2689 22.0373 81.2689C22.7746 81.2689 23.3962 81.3991 23.96 81.6737C25.0876 82.2375 25.7526 83.2639 25.7526 84.7963C25.7526 85.5914 25.5791 86.242 25.2322 86.7913C24.5382 87.89 23.295 88.4683 21.6903 88.4683ZM34.6997 85.1144C34.6997 85.8083 34.5406 86.401 34.2082 86.907C33.5287 87.9189 32.3433 88.4683 30.7675 88.4683C27.8762 88.4683 26.5896 86.7769 26.5896 83.5097V82.9459C26.5896 79.7366 28.1943 77.8717 30.9988 77.8717C32.9794 77.8717 34.2804 78.768 34.5117 80.4883H33.5865C33.3986 79.2884 32.4734 78.7102 30.9844 78.7102C28.7147 78.7102 27.5582 80.3004 27.5582 82.9603V83.4952C27.5582 83.6832 27.5582 83.8856 27.5726 84.0735C27.9919 82.7724 29.2785 81.905 31.1 81.905C31.765 81.905 32.3433 82.0207 32.9071 82.252C33.9913 82.7001 34.6997 83.6253 34.6997 85.1144ZM30.7675 87.6153C31.3458 87.6153 31.8517 87.5286 32.3144 87.3117C33.2107 86.907 33.7455 86.1408 33.7455 85.071C33.7455 84.4927 33.601 84.0446 33.3552 83.6976C32.8059 83.0037 31.9385 82.7001 30.9265 82.7001C30.3194 82.7001 29.7989 82.8158 29.3074 83.0615C28.3533 83.5242 27.7895 84.3482 27.7461 85.3023C28.1364 86.8202 29.0617 87.6153 30.7675 87.6153ZM43.0343 88.4683C40.9092 88.4683 39.4635 87.5141 39.2467 85.5914H40.2297C40.2875 86.054 40.461 86.4588 40.7068 86.7624C41.2561 87.3696 42.0801 87.6587 43.0487 87.6587C43.6704 87.6587 44.1474 87.5864 44.5088 87.4129C45.2461 87.0804 45.5497 86.5311 45.5497 85.9239C45.5497 85.5336 45.4051 85.2445 45.1594 85.0565C44.6389 84.6662 43.7716 84.5361 42.8174 84.406C42.0368 84.2903 41.2561 84.1602 40.6345 83.8566C39.9984 83.5531 39.6081 83.0471 39.6081 82.1797C39.6081 81.7749 39.7093 81.3846 39.9261 81.0376C40.3454 80.3004 41.2561 79.8233 42.7307 79.8233C44.8269 79.8233 46.0846 80.8208 46.2725 82.3676H45.3328C45.2027 81.2256 44.2197 80.5895 42.7307 80.5895C42.1669 80.5895 41.7332 80.6618 41.4007 80.8208C40.7646 81.1099 40.5188 81.6159 40.5188 82.1363C40.5188 82.5267 40.6634 82.8158 40.9092 83.0037C41.4296 83.394 42.3259 83.5242 43.2511 83.6543C44.0462 83.7699 44.8124 83.9145 45.4485 84.2036C46.0701 84.5072 46.4605 85.0276 46.4605 85.895C46.4605 86.3576 46.3448 86.7769 46.099 87.1672C45.6364 87.9623 44.6389 88.4683 43.0343 88.4683ZM51.6336 88.2659H50.853C50.159 88.2659 49.6097 88.1791 49.2194 87.9912C48.4098 87.6442 48.1062 86.8058 48.1062 85.2156V80.8642H46.4871V80.0835H47.34C47.5858 80.0835 47.7593 80.0691 47.8749 80.0257C48.1062 79.9679 48.1496 79.7221 48.1641 79.1583C48.1641 79.1149 48.1785 78.9993 48.1785 78.8258L48.2074 77.9584H48.9736V80.0546H51.6336V80.8642H48.9736V85.0999C48.9736 85.736 49.0314 86.2275 49.1616 86.56C49.3929 87.225 49.9711 87.3985 51.012 87.3985H51.6336V88.2659ZM58.8372 85.8227C58.6493 86.2998 58.3746 86.7479 57.9843 87.1527C57.2325 87.9623 56.1483 88.4683 54.8472 88.4683C53.0835 88.4683 52.1728 87.6009 52.1728 86.3287C52.1728 85.4758 52.6065 84.7963 53.2137 84.406C53.4305 84.2759 53.6618 84.1602 53.9365 84.059C54.4858 83.8711 55.2231 83.6976 56.3796 83.5242L57.6229 83.3218C58.3602 83.1917 58.8083 82.9314 58.8083 82.3676C58.8083 81.2834 58.0999 80.575 56.2784 80.575C54.4135 80.575 53.416 81.5436 53.3148 82.8158H52.4041C52.4475 82.2375 52.6354 81.7315 52.939 81.2689C53.5606 80.3582 54.6738 79.8233 56.2495 79.8233C58.7071 79.8233 59.6901 80.8786 59.6901 82.4833V88.2659H58.9384L58.8372 85.8227ZM55.0641 87.7021C56.1628 87.7021 57.088 87.2395 57.7674 86.56C58.4469 85.8661 58.8372 85.0276 58.8372 84.2325V83.4663C58.4324 83.8277 57.6373 83.9868 56.5675 84.1602C55.0496 84.3915 54.4135 84.565 53.8642 84.9264C53.4016 85.23 53.1558 85.6637 53.1558 86.2275C53.1558 87.1238 53.8064 87.7021 55.0641 87.7021ZM61.3105 88.2659V80.0546H62.0478L62.1779 82.2375C62.5682 80.8208 63.5657 80.0401 65.4017 80.0401H65.8643V80.9509H65.3005C63.0164 80.9509 62.1924 82.1074 62.1924 84.3771V88.2659H61.3105ZM69.7623 88.4683C67.6372 88.4683 66.1916 87.5141 65.9747 85.5914H66.9578C67.0156 86.054 67.1891 86.4588 67.4349 86.7624C67.9842 87.3696 68.8082 87.6587 69.7768 87.6587C70.3984 87.6587 70.8755 87.5864 71.2369 87.4129C71.9742 87.0804 72.2778 86.5311 72.2778 85.9239C72.2778 85.5336 72.1332 85.2445 71.8874 85.0565C71.367 84.6662 70.4996 84.5361 69.5455 84.406C68.7648 84.2903 67.9842 84.1602 67.3626 83.8566C66.7265 83.5531 66.3362 83.0471 66.3362 82.1797C66.3362 81.7749 66.4374 81.3846 66.6542 81.0376C67.0734 80.3004 67.9842 79.8233 69.4588 79.8233C71.5549 79.8233 72.8127 80.8208 73.0006 82.3676H72.0609C71.9308 81.2256 70.9478 80.5895 69.4588 80.5895C68.895 80.5895 68.4613 80.6618 68.1288 80.8208C67.4927 81.1099 67.2469 81.6159 67.2469 82.1363C67.2469 82.5267 67.3915 82.8158 67.6372 83.0037C68.1577 83.394 69.054 83.5242 69.9792 83.6543C70.7743 83.7699 71.5405 83.9145 72.1766 84.2036C72.7982 84.5072 73.1885 85.0276 73.1885 85.895C73.1885 86.3576 73.0729 86.7769 72.8271 87.1672C72.3645 87.9623 71.367 88.4683 69.7623 88.4683Z" fill="#7C7C88"/>
<path d="M91.398 88.2659V87.5864C91.398 86.56 91.8462 85.8083 92.569 85.2011C93.2629 84.5939 94.1737 84.1313 95.07 83.7121C95.6193 83.4663 96.1253 83.2061 96.6024 82.9314C97.5709 82.411 98.2215 81.7605 98.2215 80.8352C98.2215 79.5053 97.2818 78.6812 95.5037 78.6812C93.6243 78.6812 92.5256 79.6498 92.5256 81.4569V81.8183H91.586V81.428C91.586 79.1294 93.0172 77.8717 95.5181 77.8717C97.8745 77.8717 99.1612 79.0571 99.1612 80.8063C99.1612 81.7315 98.7419 82.411 98.0769 82.9603C97.3975 83.5097 96.559 83.9434 95.7061 84.3482C95.1856 84.5939 94.6797 84.8686 94.1881 85.1577C93.2196 85.7071 92.5112 86.3721 92.4389 87.3985H99.2768V88.2659H91.398ZM103.824 88.4683C101.034 88.4683 99.8338 87.4274 99.8338 85.0854V84.8397H100.759V85.0421C100.759 86.8491 101.742 87.6298 103.809 87.6298C105.703 87.6298 106.874 86.7479 106.874 85.389C106.874 83.9578 105.992 83.4374 104.344 83.4374H102.797V82.6568H104.344C105.949 82.6568 106.686 81.9918 106.686 80.7485C106.686 79.5486 105.775 78.7102 103.911 78.7102C102.031 78.7102 100.961 79.7221 100.961 81.2111V81.3412H100.036V81.1822C100.036 79.2017 101.41 77.8717 103.925 77.8717C106.368 77.8717 107.655 79.0282 107.655 80.6762C107.655 81.8906 107.077 82.6712 105.92 83.0037C107.178 83.2928 107.843 84.0735 107.843 85.4613C107.843 87.2684 106.368 88.4683 103.824 88.4683ZM114.422 80.8642L114.408 88.2659H113.54V80.8642H111.892V80.0546H113.54V79.6932C113.54 78.9415 113.613 78.3632 113.786 77.944C114.09 77.1344 114.827 76.8597 116.128 76.8597H116.909V77.6404H116.215C115.738 77.6404 115.362 77.6837 115.087 77.7849C114.567 78.0018 114.422 78.5511 114.422 79.7655V80.0546H116.894V80.8642H114.422ZM120.849 88.4683C118.247 88.4683 116.772 86.8925 116.772 84.2759V84.1169C116.772 83.2061 116.946 82.4399 117.307 81.8038C118.03 80.5028 119.273 79.8233 120.849 79.8233C121.644 79.8233 122.338 79.9968 122.96 80.3437C124.203 81.0232 124.926 82.3098 124.926 84.1169V84.2759C124.926 85.1433 124.767 85.8806 124.434 86.5166C123.769 87.7743 122.54 88.4683 120.849 88.4683ZM120.849 87.6442C122.858 87.6442 124.015 86.3576 124.015 84.2614V84.1313C124.015 83.4085 123.885 82.8158 123.61 82.2664C123.046 81.2256 122.078 80.6184 120.863 80.6184C120.256 80.6184 119.707 80.7485 119.244 81.0376C118.29 81.6014 117.712 82.6423 117.712 84.1313V84.2614C117.712 86.3287 118.854 87.6442 120.849 87.6442ZM126.151 88.2659V80.0546H126.888L127.018 82.2375C127.409 80.8208 128.406 80.0401 130.242 80.0401H130.705V80.9509H130.141C127.857 80.9509 127.033 82.1074 127.033 84.3771V88.2659H126.151ZM134.849 83.741L132.377 86.2275V88.2659H131.495V77.2934H132.377V85.2011L132.449 85.1144L137.495 80.0546H138.651L135.543 83.2206L138.911 88.2659H137.842L134.849 83.741ZM142.644 88.4683C140.518 88.4683 139.073 87.5141 138.856 85.5914H139.839C139.897 86.054 140.07 86.4588 140.316 86.7624C140.865 87.3696 141.689 87.6587 142.658 87.6587C143.28 87.6587 143.757 87.5864 144.118 87.4129C144.855 87.0804 145.159 86.5311 145.159 85.9239C145.159 85.5336 145.014 85.2445 144.769 85.0565C144.248 84.6662 143.381 84.5361 142.427 84.406C141.646 84.2903 140.865 84.1602 140.244 83.8566C139.608 83.5531 139.217 83.0471 139.217 82.1797C139.217 81.7749 139.319 81.3846 139.535 81.0376C139.955 80.3004 140.865 79.8233 142.34 79.8233C144.436 79.8233 145.694 80.8208 145.882 82.3676H144.942C144.812 81.2256 143.829 80.5895 142.34 80.5895C141.776 80.5895 141.343 80.6618 141.01 80.8208C140.374 81.1099 140.128 81.6159 140.128 82.1363C140.128 82.5267 140.273 82.8158 140.518 83.0037C141.039 83.394 141.935 83.5242 142.86 83.6543C143.656 83.7699 144.422 83.9145 145.058 84.2036C145.679 84.5072 146.07 85.0276 146.07 85.895C146.07 86.3576 145.954 86.7769 145.708 87.1672C145.246 87.9623 144.248 88.4683 142.644 88.4683Z" fill="#7C7C88"/>
<defs>
<linearGradient id="paint0_linear_1_876" x1="98.3831" y1="0.0861816" x2="98.3831" y2="129.829" gradientUnits="userSpaceOnUse">
<stop stop-color="#252529"/>
<stop offset="1" stop-color="#252529" stop-opacity="0"/>
</linearGradient>
<linearGradient id="paint1_linear_1_876" x1="38.2727" y1="14.3699" x2="38.2727" y2="56.3288" gradientUnits="userSpaceOnUse">
<stop stop-color="#7C7C88"/>
<stop offset="1" stop-color="#28282B"/>
</linearGradient>
</defs>
</svg>
