<svg width="226" height="139" viewBox="0 0 226 139" fill="none" xmlns="http://www.w3.org/2000/svg">
<g filter="url(#filter0_d_1_907)">
<rect x="5.02948" y="0.955992" width="215.445" height="128.553" rx="11.3079" fill="#18181A" stroke="url(#paint0_linear_1_907)" stroke-width="1.1903"/>
<rect x="111.562" y="33.6895" width="89.2729" height="11.903" rx="3.57091" fill="#28282B"/>
<rect x="111.562" y="68.2083" width="45.1063" height="11.903" rx="3.57091" fill="#28282B"/>
<rect x="111.562" y="50.3535" width="70.4786" height="11.903" rx="3.57091" fill="#28282B"/>
<rect x="111.562" y="86.0627" width="80.8154" height="11.903" rx="3.57091" fill="#28282B"/>
<rect x="93.7072" y="33.6895" width="11.903" height="11.903" rx="3.57091" fill="#28282B"/>
<rect x="93.7072" y="68.2083" width="11.903" height="11.903" rx="3.57091" fill="#28282B"/>
<rect x="93.7072" y="50.3535" width="11.903" height="11.903" rx="3.57091" fill="#28282B"/>
<rect x="93.7072" y="86.0627" width="11.903" height="11.903" rx="3.57091" fill="#28282B"/>
<path d="M36.4022 79.515C37.4187 78.4985 39.0605 78.5245 40.2002 79.4007C43.3036 81.7865 47.1891 83.2055 51.406 83.2056C52.4741 83.2055 53.5208 83.114 54.5389 82.9389C56.0025 82.6872 57.515 83.4846 57.8994 84.919L59.3229 90.2313C59.6826 91.5739 58.917 92.9729 57.5582 93.2656C55.575 93.6928 53.5169 93.9184 51.406 93.9185C44.2143 93.9184 37.632 91.3101 32.552 86.9888C31.4709 86.0691 31.4835 84.4337 32.4871 83.4301L36.4022 79.515ZM78.2898 62.647C79.5047 62.647 80.5242 63.5854 80.5242 64.8003C80.5241 75.2239 75.0459 84.3678 66.8123 89.5119C65.4374 90.3709 63.6899 89.5703 63.2703 88.0043L61.7163 82.2048C61.4237 81.1126 61.8876 79.9712 62.7762 79.2721C67.0596 75.9023 69.8113 70.6729 69.8113 64.8003C69.8113 63.651 70.6933 62.647 71.8426 62.647H78.2898ZM49.2107 44.2319C49.2107 45.5404 48.2248 46.6228 46.9548 46.9382C38.9409 48.9286 33.0019 56.1707 33.0017 64.8003C33.0017 67.5019 33.584 70.0672 34.6297 72.3782C35.1157 73.4524 34.9705 74.7377 34.1367 75.5713L29.9645 79.743C28.8415 80.8659 26.9726 80.7209 26.178 79.3459C23.7047 75.066 22.2888 70.0988 22.2888 64.8003C22.289 50.4089 32.7296 38.4574 46.4496 36.1047C47.9301 35.8509 49.2107 37.0465 49.2107 38.5485V44.2319ZM53.6013 38.5486C53.6013 37.0465 54.8826 35.851 56.3631 36.1049C66.8552 37.9045 75.4295 45.3173 78.8831 55.1422C79.4335 56.7081 78.2016 58.2563 76.5417 58.2563H70.3926C69.3206 58.2563 68.3755 57.5856 67.8987 56.6255C65.5273 51.8504 61.1437 48.2514 55.8568 46.9382C54.5869 46.6228 53.6013 45.5405 53.6013 44.232V38.5486Z" fill="url(#paint1_linear_1_907)"/>
</g>
<defs>
<filter id="filter0_d_1_907" x="0.434326" y="0.36084" width="224.635" height="137.743" filterUnits="userSpaceOnUse" color-interpolation-filters="sRGB">
<feFlood flood-opacity="0" result="BackgroundImageFix"/>
<feColorMatrix in="SourceAlpha" type="matrix" values="0 0 0 0 0 0 0 0 0 0 0 0 0 0 0 0 0 0 127 0" result="hardAlpha"/>
<feOffset dy="4"/>
<feGaussianBlur stdDeviation="2"/>
<feComposite in2="hardAlpha" operator="out"/>
<feColorMatrix type="matrix" values="0 0 0 0 0 0 0 0 0 0 0 0 0 0 0 0 0 0 0.25 0"/>
<feBlend mode="normal" in2="BackgroundImageFix" result="effect1_dropShadow_1_907"/>
<feBlend mode="normal" in="SourceGraphic" in2="effect1_dropShadow_1_907" result="shape"/>
</filter>
<linearGradient id="paint0_linear_1_907" x1="112.752" y1="0.36084" x2="112.752" y2="130.104" gradientUnits="userSpaceOnUse">
<stop stop-color="#252529"/>
<stop offset="1" stop-color="#252529" stop-opacity="0"/>
</linearGradient>
<linearGradient id="paint1_linear_1_907" x1="51.4065" y1="36.0708" x2="51.4065" y2="93.9187" gradientUnits="userSpaceOnUse">
<stop stop-color="#7C7C88"/>
<stop offset="1" stop-color="#28282B"/>
</linearGradient>
</defs>
</svg>
