<svg width="60" height="51" viewBox="0 0 60 51" fill="none" xmlns="http://www.w3.org/2000/svg">
<path d="M24.4455 27.1072C25.2604 28.7206 26.4127 30.1399 27.8244 31.2688C29.236 32.3977 30.8739 33.2098 32.627 33.6501C34.3801 34.0903 36.2074 34.1484 37.9849 33.8203C39.7624 33.4922 41.4485 32.7857 42.929 31.7487L51.6906 25.6138C54.3646 23.6713 56.1688 20.7562 56.7144 17.4963C57.26 14.2365 56.5035 10.8928 54.6077 8.18536C52.712 5.47792 49.8287 3.62338 46.5788 3.02118C43.329 2.41898 39.9726 3.1173 37.2326 4.96573L32.2137 8.45825" stroke="white" stroke-width="5.59364" stroke-linecap="round" stroke-linejoin="round"/>
<path d="M35.252 23.8928C34.4372 22.2794 33.2848 20.8601 31.8732 19.7312C30.4615 18.6023 28.8236 17.7901 27.0705 17.3499C25.3174 16.9097 23.4902 16.8516 21.7127 17.1797C19.9352 17.5078 18.249 18.2143 16.7685 19.2513L8.00698 25.3862C5.3329 27.3287 3.52875 30.2438 2.98312 33.5036C2.43748 36.7635 3.19403 40.1072 5.0898 42.8146C6.98557 45.5221 9.86888 47.3766 13.1187 47.9788C16.3686 48.581 19.7249 47.8827 22.4649 46.0343L27.459 42.5374" stroke="white" stroke-width="5.59364" stroke-linecap="round" stroke-linejoin="round"/>
</svg>
