<svg width="578" height="663" viewBox="0 0 578 663" fill="none" xmlns="http://www.w3.org/2000/svg">
<rect x="15" width="548.731" height="663" rx="47.6122" fill="#1E1E20"/>
<rect x="66.7781" y="63.6813" width="195.21" height="128.553" rx="11.3079" fill="#18181A" stroke="url(#paint0_linear_1_874)" stroke-width="1.1903"/>
<path d="M104.27 77.3699C116.105 77.3699 125.698 87.0002 125.698 98.8806C125.698 108.38 119.565 116.439 111.062 119.289C109.975 119.5 109.589 118.83 109.589 118.255C109.589 117.55 109.616 115.231 109.616 112.354C109.616 110.349 108.93 109.036 108.162 108.372C112.934 107.839 117.942 106.021 117.942 97.7585C117.942 95.4098 117.115 93.4893 115.741 91.9841C115.961 91.4401 116.694 89.2551 115.527 86.2937C115.527 86.2937 113.73 85.7152 109.64 88.4978C107.929 88.0184 106.094 87.782 104.275 87.7712C102.451 87.7793 100.619 88.0182 98.9109 88.4949C94.8312 85.7208 93.0302 86.2873 93.0193 86.2908C91.8544 89.2501 92.588 91.4385 92.8103 91.9822C91.4393 93.4872 90.6033 95.4071 90.6033 97.7556C90.6033 105.996 95.6066 107.842 100.363 108.385C99.7498 108.924 99.1956 109.872 99.0027 111.261C97.7814 111.813 94.6766 112.761 92.7644 109.475C92.7476 109.445 91.6185 107.41 89.4841 107.259C89.4841 107.259 87.3926 107.231 89.3396 108.565C89.3622 108.576 90.7533 109.247 91.7175 111.712C91.7175 111.712 92.9763 115.895 98.9353 114.596C98.946 116.391 98.9646 117.743 98.9646 118.255C98.9646 118.825 98.5738 119.489 97.5027 119.291C88.9861 116.444 82.8474 108.383 82.8474 98.8806C82.8475 87.0002 92.4407 77.3699 104.27 77.3699Z" fill="url(#paint1_linear_1_874)"/>
<rect x="131.65" y="84.5117" width="113.079" height="11.903" rx="3.57091" fill="#28282B"/>
<rect x="131.65" y="101.176" width="77.3698" height="11.903" rx="3.57091" fill="#28282B"/>
<rect x="82.8474" y="163.072" width="161.881" height="11.903" rx="3.57091" fill="#28282B"/>
<path d="M87.6903 151.468C86.8229 151.468 86.1001 151.338 85.5219 151.049C84.3943 150.485 83.8594 149.473 83.8594 148.216V148.158H84.8279V148.216C84.8279 149.603 85.7965 150.63 87.7192 150.63C88.2975 150.63 88.8324 150.529 89.295 150.312C90.2202 149.893 90.7985 149.04 90.7985 147.782C90.7985 145.96 89.6275 145.064 87.965 145.064C86.4471 145.064 85.5219 145.83 85.0014 146.64L84.9436 146.712L84.0184 146.466L84.7268 141.031H91.2755C91.2755 141.276 91.2466 141.464 91.1888 141.58C91.0731 141.826 90.7262 141.869 89.9744 141.869H85.4785L84.9725 145.613C85.6086 144.833 86.5483 144.269 88.0373 144.269C88.7746 144.269 89.3962 144.399 89.96 144.674C91.0876 145.238 91.7526 146.264 91.7526 147.796C91.7526 148.591 91.5791 149.242 91.2322 149.791C90.5382 150.89 89.295 151.468 87.6903 151.468ZM100.7 148.114C100.7 148.808 100.541 149.401 100.208 149.907C99.5287 150.919 98.3433 151.468 96.7675 151.468C93.8762 151.468 92.5896 149.777 92.5896 146.51V145.946C92.5896 142.737 94.1943 140.872 96.9988 140.872C98.9794 140.872 100.28 141.768 100.512 143.488H99.5865C99.3986 142.288 98.4734 141.71 96.9844 141.71C94.7147 141.71 93.5582 143.3 93.5582 145.96V146.495C93.5582 146.683 93.5582 146.886 93.5726 147.073C93.9919 145.772 95.2785 144.905 97.1 144.905C97.765 144.905 98.3433 145.021 98.9071 145.252C99.9913 145.7 100.7 146.625 100.7 148.114ZM96.7675 150.615C97.3458 150.615 97.8517 150.529 98.3144 150.312C99.2107 149.907 99.7455 149.141 99.7455 148.071C99.7455 147.493 99.601 147.045 99.3552 146.698C98.8059 146.004 97.9385 145.7 96.9265 145.7C96.3194 145.7 95.7989 145.816 95.3074 146.062C94.3533 146.524 93.7895 147.348 93.7461 148.302C94.1364 149.82 95.0617 150.615 96.7675 150.615ZM109.034 151.468C106.909 151.468 105.464 150.514 105.247 148.591H106.23C106.288 149.054 106.461 149.459 106.707 149.762C107.256 150.37 108.08 150.659 109.049 150.659C109.67 150.659 110.147 150.586 110.509 150.413C111.246 150.08 111.55 149.531 111.55 148.924C111.55 148.534 111.405 148.244 111.159 148.057C110.639 147.666 109.772 147.536 108.817 147.406C108.037 147.29 107.256 147.16 106.634 146.857C105.998 146.553 105.608 146.047 105.608 145.18C105.608 144.775 105.709 144.385 105.926 144.038C106.345 143.3 107.256 142.823 108.731 142.823C110.827 142.823 112.085 143.821 112.273 145.368H111.333C111.203 144.226 110.22 143.589 108.731 143.589C108.167 143.589 107.733 143.662 107.401 143.821C106.765 144.11 106.519 144.616 106.519 145.136C106.519 145.527 106.663 145.816 106.909 146.004C107.43 146.394 108.326 146.524 109.251 146.654C110.046 146.77 110.812 146.914 111.448 147.204C112.07 147.507 112.46 148.028 112.46 148.895C112.46 149.358 112.345 149.777 112.099 150.167C111.636 150.962 110.639 151.468 109.034 151.468ZM117.634 151.266H116.853C116.159 151.266 115.61 151.179 115.219 150.991C114.41 150.644 114.106 149.806 114.106 148.216V143.864H112.487V143.084H113.34C113.586 143.084 113.759 143.069 113.875 143.026C114.106 142.968 114.15 142.722 114.164 142.158C114.164 142.115 114.179 141.999 114.179 141.826L114.207 140.958H114.974V143.055H117.634V143.864H114.974V148.1C114.974 148.736 115.031 149.228 115.162 149.56C115.393 150.225 115.971 150.398 117.012 150.398H117.634V151.266ZM124.837 148.823C124.649 149.3 124.375 149.748 123.984 150.153C123.233 150.962 122.148 151.468 120.847 151.468C119.084 151.468 118.173 150.601 118.173 149.329C118.173 148.476 118.606 147.796 119.214 147.406C119.43 147.276 119.662 147.16 119.936 147.059C120.486 146.871 121.223 146.698 122.38 146.524L123.623 146.322C124.36 146.192 124.808 145.931 124.808 145.368C124.808 144.283 124.1 143.575 122.278 143.575C120.414 143.575 119.416 144.544 119.315 145.816H118.404C118.447 145.238 118.635 144.732 118.939 144.269C119.561 143.358 120.674 142.823 122.25 142.823C124.707 142.823 125.69 143.879 125.69 145.483V151.266H124.938L124.837 148.823ZM121.064 150.702C122.163 150.702 123.088 150.239 123.767 149.56C124.447 148.866 124.837 148.028 124.837 147.233V146.466C124.432 146.828 123.637 146.987 122.568 147.16C121.05 147.392 120.414 147.565 119.864 147.926C119.402 148.23 119.156 148.664 119.156 149.228C119.156 150.124 119.806 150.702 121.064 150.702ZM127.311 151.266V143.055H128.048L128.178 145.238C128.568 143.821 129.566 143.04 131.402 143.04H131.864V143.951H131.3C129.016 143.951 128.192 145.107 128.192 147.377V151.266H127.311ZM135.762 151.468C133.637 151.468 132.192 150.514 131.975 148.591H132.958C133.016 149.054 133.189 149.459 133.435 149.762C133.984 150.37 134.808 150.659 135.777 150.659C136.398 150.659 136.875 150.586 137.237 150.413C137.974 150.08 138.278 149.531 138.278 148.924C138.278 148.534 138.133 148.244 137.887 148.057C137.367 147.666 136.5 147.536 135.545 147.406C134.765 147.29 133.984 147.16 133.363 146.857C132.726 146.553 132.336 146.047 132.336 145.18C132.336 144.775 132.437 144.385 132.654 144.038C133.073 143.3 133.984 142.823 135.459 142.823C137.555 142.823 138.813 143.821 139.001 145.368H138.061C137.931 144.226 136.948 143.589 135.459 143.589C134.895 143.589 134.461 143.662 134.129 143.821C133.493 144.11 133.247 144.616 133.247 145.136C133.247 145.527 133.391 145.816 133.637 146.004C134.158 146.394 135.054 146.524 135.979 146.654C136.774 146.77 137.54 146.914 138.177 147.204C138.798 147.507 139.189 148.028 139.189 148.895C139.189 149.358 139.073 149.777 138.827 150.167C138.365 150.962 137.367 151.468 135.762 151.468Z" fill="#7C7C88"/>
<path d="M157.398 151.266V150.586C157.398 149.56 157.846 148.808 158.569 148.201C159.263 147.594 160.174 147.131 161.07 146.712C161.619 146.466 162.125 146.206 162.602 145.931C163.571 145.411 164.221 144.76 164.221 143.835C164.221 142.505 163.282 141.681 161.504 141.681C159.624 141.681 158.526 142.65 158.526 144.457V144.818H157.586V144.428C157.586 142.129 159.017 140.872 161.518 140.872C163.875 140.872 165.161 142.057 165.161 143.806C165.161 144.732 164.742 145.411 164.077 145.96C163.397 146.51 162.559 146.943 161.706 147.348C161.186 147.594 160.68 147.869 160.188 148.158C159.22 148.707 158.511 149.372 158.439 150.398H165.277V151.266H157.398ZM169.824 151.468C167.034 151.468 165.834 150.427 165.834 148.085V147.84H166.759V148.042C166.759 149.849 167.742 150.63 169.809 150.63C171.703 150.63 172.874 149.748 172.874 148.389C172.874 146.958 171.992 146.437 170.344 146.437H168.797V145.657H170.344C171.949 145.657 172.686 144.992 172.686 143.749C172.686 142.549 171.775 141.71 169.911 141.71C168.031 141.71 166.961 142.722 166.961 144.211V144.341H166.036V144.182C166.036 142.202 167.41 140.872 169.925 140.872C172.368 140.872 173.655 142.028 173.655 143.676C173.655 144.891 173.077 145.671 171.92 146.004C173.178 146.293 173.843 147.073 173.843 148.461C173.843 150.268 172.368 151.468 169.824 151.468ZM180.422 143.864L180.408 151.266H179.54V143.864H177.892V143.055H179.54V142.693C179.54 141.941 179.613 141.363 179.786 140.944C180.09 140.134 180.827 139.86 182.128 139.86H182.909V140.64H182.215C181.738 140.64 181.362 140.684 181.087 140.785C180.567 141.002 180.422 141.551 180.422 142.765V143.055H182.894V143.864H180.422ZM186.849 151.468C184.247 151.468 182.772 149.893 182.772 147.276V147.117C182.772 146.206 182.946 145.44 183.307 144.804C184.03 143.503 185.273 142.823 186.849 142.823C187.644 142.823 188.338 142.997 188.96 143.344C190.203 144.023 190.926 145.31 190.926 147.117V147.276C190.926 148.143 190.767 148.881 190.434 149.517C189.769 150.774 188.54 151.468 186.849 151.468ZM186.849 150.644C188.858 150.644 190.015 149.358 190.015 147.261V147.131C190.015 146.408 189.885 145.816 189.61 145.266C189.046 144.226 188.078 143.618 186.863 143.618C186.256 143.618 185.707 143.749 185.244 144.038C184.29 144.601 183.712 145.642 183.712 147.131V147.261C183.712 149.329 184.854 150.644 186.849 150.644ZM192.151 151.266V143.055H192.888L193.018 145.238C193.409 143.821 194.406 143.04 196.242 143.04H196.705V143.951H196.141C193.857 143.951 193.033 145.107 193.033 147.377V151.266H192.151ZM200.849 146.741L198.377 149.228V151.266H197.495V140.293H198.377V148.201L198.449 148.114L203.495 143.055H204.651L201.543 146.221L204.911 151.266H203.842L200.849 146.741ZM208.644 151.468C206.518 151.468 205.073 150.514 204.856 148.591H205.839C205.897 149.054 206.07 149.459 206.316 149.762C206.865 150.37 207.689 150.659 208.658 150.659C209.28 150.659 209.757 150.586 210.118 150.413C210.855 150.08 211.159 149.531 211.159 148.924C211.159 148.534 211.014 148.244 210.769 148.057C210.248 147.666 209.381 147.536 208.427 147.406C207.646 147.29 206.865 147.16 206.244 146.857C205.608 146.553 205.217 146.047 205.217 145.18C205.217 144.775 205.319 144.385 205.535 144.038C205.955 143.3 206.865 142.823 208.34 142.823C210.436 142.823 211.694 143.821 211.882 145.368H210.942C210.812 144.226 209.829 143.589 208.34 143.589C207.776 143.589 207.343 143.662 207.01 143.821C206.374 144.11 206.128 144.616 206.128 145.136C206.128 145.527 206.273 145.816 206.518 146.004C207.039 146.394 207.935 146.524 208.86 146.654C209.656 146.77 210.422 146.914 211.058 147.204C211.679 147.507 212.07 148.028 212.07 148.895C212.07 149.358 211.954 149.777 211.708 150.167C211.246 150.962 210.248 151.468 208.644 151.468Z" fill="#7C7C88"/>
<rect x="333.406" y="93.4391" width="195.21" height="128.553" rx="11.3079" fill="#18181A" stroke="url(#paint2_linear_1_874)" stroke-width="1.1903"/>
<rect x="398.278" y="126.172" width="113.079" height="11.903" rx="3.57091" fill="#28282B"/>
<rect x="398.278" y="160.691" width="103.557" height="11.903" rx="3.57091" fill="#28282B"/>
<rect x="398.278" y="142.837" width="77.3698" height="11.903" rx="3.57091" fill="#28282B"/>
<rect x="398.278" y="178.546" width="60.7055" height="11.903" rx="3.57091" fill="#28282B"/>
<path d="M381.231 153.625C384.916 155.708 384.916 160.914 381.231 162.996L361.336 174.242C357.652 176.325 353.047 173.721 353.047 169.556L353.047 147.065C353.047 142.9 357.652 140.297 361.336 142.379L381.231 153.625Z" fill="url(#paint3_linear_1_874)"/>
<rect x="54.8751" y="430.295" width="195.21" height="197.591" rx="11.3079" fill="#18181A" stroke="url(#paint4_linear_1_874)" stroke-width="1.1903"/>
<rect x="69.754" y="482.073" width="165.452" height="11.903" rx="3.57091" fill="#28282B"/>
<rect x="69.7541" y="529.686" width="96.4147" height="11.903" rx="3.57091" fill="#28282B"/>
<rect x="69.7541" y="505.88" width="141.646" height="11.903" rx="3.57091" fill="#28282B"/>
<rect x="132.84" y="454.697" width="102.366" height="11.903" rx="3.57091" fill="#28282B"/>
<path d="M71.4501 464.935V452.294H76.1459C79.3597 452.294 80.6809 453.419 80.6809 455.472C80.6809 457.079 79.931 458.043 78.3777 458.454C80.0739 458.829 80.9488 459.74 80.9488 461.454C80.9488 463.703 79.4847 464.935 76.1816 464.935H71.4501ZM72.575 453.258V457.99H76.1816C78.3598 457.99 79.5561 457.258 79.5561 455.562C79.5561 454.062 78.5741 453.258 76.1637 453.258H72.575ZM72.575 458.936V463.935H76.0745C78.6991 463.935 79.7882 463.061 79.7882 461.382C79.7882 459.632 78.4848 458.936 76.1459 458.936H72.575ZM82.4425 464.935V451.384H83.5674V464.935H82.4425ZM90.0885 465.185C86.8747 465.185 85.0535 463.239 85.0535 460.007V459.811C85.0535 458.686 85.2677 457.74 85.7141 456.954C86.6068 455.347 88.1423 454.508 90.0885 454.508C91.0705 454.508 91.9275 454.722 92.6952 455.151C94.2307 455.99 95.1235 457.579 95.1235 459.811V460.007C95.1235 461.079 94.9271 461.989 94.5164 462.775C93.6951 464.328 92.1775 465.185 90.0885 465.185ZM90.0885 464.168C92.5703 464.168 93.9986 462.578 93.9986 459.99V459.829C93.9986 458.936 93.8379 458.204 93.4987 457.526C92.8024 456.24 91.6061 455.49 90.1063 455.49C89.3564 455.49 88.678 455.651 88.1066 456.008C86.9282 456.704 86.214 457.99 86.214 459.829V459.99C86.214 462.543 87.6246 464.168 90.0885 464.168ZM100.245 469.649C96.9951 469.649 95.7453 468.72 95.7453 467.096C95.7453 465.917 96.4416 465.06 98.0128 464.65C96.763 464.453 96.2095 463.846 96.2095 462.918C96.2095 461.989 96.9594 461.257 98.5306 461.025C96.9773 460.614 96.1917 459.615 96.1917 458.043V458.026C96.1917 456.258 97.3165 454.99 99.6198 454.687C99.9947 454.633 100.477 454.598 100.923 454.58C101.637 454.526 102.191 454.437 102.548 454.294C103.298 453.955 103.494 453.437 103.494 452.687V452.455H104.69V452.758C104.69 453.169 104.619 453.544 104.476 453.848C104.191 454.437 103.441 454.812 101.869 454.883C101.923 454.883 101.941 454.901 101.994 454.901C102.619 454.972 103.137 455.169 103.548 455.472C104.387 456.097 104.798 457.026 104.798 457.954V458.026C104.798 460.132 103.155 461.454 100.423 461.454H99.8876C97.8343 461.454 97.2272 461.954 97.2272 462.668C97.2272 463.346 97.7629 463.739 99.1198 463.739H101.869C104.458 463.739 105.565 464.739 105.565 466.417C105.565 467.024 105.405 467.56 105.065 468.06C104.369 469.042 102.923 469.649 100.441 469.649H100.245ZM100.423 460.579C102.53 460.579 103.673 459.579 103.673 458.008V457.99C103.673 457.311 103.512 456.811 103.226 456.437C102.655 455.687 101.709 455.401 100.655 455.401C100.352 455.401 100.155 455.383 99.8876 455.437C98.2092 455.633 97.2987 456.615 97.3165 458.026V458.043C97.3165 459.65 98.4056 460.579 100.423 460.579ZM100.441 468.667C101.441 468.667 102.227 468.578 102.816 468.381C104.012 467.971 104.494 467.31 104.494 466.471C104.494 465.364 103.78 464.685 101.816 464.685H100.298C97.9771 464.703 96.8702 465.471 96.8702 466.81V466.828C96.8702 467.953 97.8343 468.667 100.155 468.667H100.441ZM110.284 465.185C107.659 465.185 105.873 464.007 105.606 461.632H106.82C106.891 462.204 107.105 462.703 107.409 463.078C108.087 463.828 109.105 464.185 110.301 464.185C111.069 464.185 111.658 464.096 112.105 463.882C113.015 463.471 113.39 462.793 113.39 462.043C113.39 461.561 113.212 461.204 112.908 460.972C112.265 460.49 111.194 460.329 110.016 460.168C109.052 460.025 108.087 459.865 107.32 459.49C106.534 459.115 106.052 458.49 106.052 457.419C106.052 456.919 106.177 456.437 106.445 456.008C106.963 455.097 108.087 454.508 109.909 454.508C112.498 454.508 114.051 455.74 114.283 457.651H113.122C112.962 456.24 111.748 455.455 109.909 455.455C109.212 455.455 108.677 455.544 108.266 455.74C107.48 456.097 107.177 456.722 107.177 457.365C107.177 457.847 107.355 458.204 107.659 458.436C108.302 458.918 109.409 459.079 110.551 459.24C111.533 459.383 112.48 459.561 113.265 459.918C114.033 460.293 114.515 460.936 114.515 462.007C114.515 462.578 114.372 463.096 114.069 463.578C113.497 464.56 112.265 465.185 110.284 465.185Z" fill="#7C7C88"/>
<rect x="69.754" y="555.872" width="53.5637" height="52.3734" rx="3.57091" fill="#28282B"/>
<rect x="129.269" y="555.872" width="52.3734" height="52.3734" rx="3.57091" fill="#28282B"/>
<rect x="187.594" y="555.872" width="47.6122" height="52.3734" rx="3.57091" fill="#28282B"/>
<g filter="url(#filter0_d_1_874)">
<rect x="306.029" y="471.956" width="215.445" height="128.553" rx="11.3079" fill="#18181A" stroke="url(#paint5_linear_1_874)" stroke-width="1.1903"/>
<rect x="412.562" y="504.689" width="89.2729" height="11.903" rx="3.57091" fill="#28282B"/>
<rect x="412.562" y="539.208" width="45.1063" height="11.903" rx="3.57091" fill="#28282B"/>
<rect x="412.562" y="521.354" width="70.4786" height="11.903" rx="3.57091" fill="#28282B"/>
<rect x="412.562" y="557.063" width="80.8154" height="11.903" rx="3.57091" fill="#28282B"/>
<rect x="394.707" y="504.689" width="11.903" height="11.903" rx="3.57091" fill="#28282B"/>
<rect x="394.707" y="539.208" width="11.903" height="11.903" rx="3.57091" fill="#28282B"/>
<rect x="394.707" y="521.354" width="11.903" height="11.903" rx="3.57091" fill="#28282B"/>
<rect x="394.707" y="557.063" width="11.903" height="11.903" rx="3.57091" fill="#28282B"/>
<path d="M337.402 550.515C338.419 549.499 340.061 549.525 341.2 550.401C344.304 552.787 348.189 554.205 352.406 554.206C353.474 554.206 354.521 554.114 355.539 553.939C357.002 553.687 358.515 554.485 358.899 555.919L360.323 561.231C360.683 562.574 359.917 563.973 358.558 564.266C356.575 564.693 354.517 564.918 352.406 564.918C345.214 564.918 338.632 562.31 333.552 557.989C332.471 557.069 332.483 555.434 333.487 554.43L337.402 550.515ZM379.29 533.647C380.505 533.647 381.524 534.585 381.524 535.8C381.524 546.224 376.046 555.368 367.812 560.512C366.437 561.371 364.69 560.57 364.27 559.004L362.716 553.205C362.424 552.113 362.888 550.971 363.776 550.272C368.06 546.902 370.811 541.673 370.811 535.8C370.811 534.651 371.693 533.647 372.843 533.647H379.29ZM350.211 515.232C350.211 516.54 349.225 517.623 347.955 517.938C339.941 519.929 334.002 527.171 334.002 535.8C334.002 538.502 334.584 541.067 335.63 543.378C336.116 544.452 335.971 545.738 335.137 546.571L330.965 550.743C329.841 551.866 327.973 551.721 327.178 550.346C324.705 546.066 323.289 541.099 323.289 535.8C323.289 521.409 333.73 509.457 347.45 507.105C348.93 506.851 350.211 508.046 350.211 509.549V515.232ZM354.601 509.549C354.601 508.047 355.883 506.851 357.363 507.105C367.855 508.904 376.429 516.317 379.883 526.142C380.434 527.708 379.202 529.256 377.542 529.256H371.393C370.321 529.256 369.376 528.586 368.899 527.626C366.527 522.85 362.144 519.251 356.857 517.938C355.587 517.623 354.601 516.54 354.601 515.232V509.549Z" fill="url(#paint6_linear_1_874)"/>
</g>
<path d="M164.978 192.83V220.373C164.978 234.835 176.703 246.559 191.165 246.559H263.774C278.236 246.559 289.96 258.283 289.96 272.746V323.763" stroke="#28282B" stroke-width="5.95152"/>
<path d="M431.607 222.587V222.587C431.607 235.827 420.874 246.559 407.634 246.559H316.147C301.684 246.559 289.96 258.283 289.96 272.746V323.763" stroke="#28282B" stroke-width="5.95152"/>
<path d="M153.075 429.7V429.7C153.075 418.433 162.209 409.299 173.477 409.299H263.774C278.236 409.299 289.96 397.575 289.96 383.112V332.095" stroke="#28282B" stroke-width="5.95152"/>
<path d="M413.752 471.361V435.486C413.752 421.023 402.028 409.299 387.565 409.299H316.147C301.684 409.299 289.96 397.575 289.96 383.112V332.095" stroke="#28282B" stroke-width="5.95152"/>
<g opacity="0.5" filter="url(#filter1_f_1_874)">
<rect x="81.657" y="286.864" width="415.416" height="90.4632" rx="23.8061" fill="url(#paint7_linear_1_874)"/>
</g>
<g style="mix-blend-mode:plus-lighter" opacity="0.3" filter="url(#filter2_f_1_874)">
<rect x="81.657" y="286.864" width="415.416" height="90.4632" rx="23.8061" fill="url(#paint8_linear_1_874)"/>
</g>
<mask id="mask0_1_874" style="mask-type:alpha" maskUnits="userSpaceOnUse" x="81" y="286" width="417" height="92">
<rect x="81.657" y="286.864" width="415.416" height="90.4632" rx="23.8061" fill="url(#paint9_linear_1_874)"/>
</mask>
<g mask="url(#mask0_1_874)">
<rect x="81.657" y="286.864" width="415.416" height="90.4632" rx="23.8061" fill="#D9D9D9"/>
<rect x="81.657" y="286.864" width="415.416" height="90.4632" rx="23.8061" fill="url(#paint10_linear_1_874)"/>
<g style="mix-blend-mode:plus-lighter" opacity="0.2" filter="url(#filter3_f_1_874)">
<path d="M133.464 238.855C113.438 216.463 129.332 180.927 159.372 180.927H275.689C285.58 180.927 295.003 185.141 301.597 192.514L396.773 298.936C416.799 321.329 400.906 356.865 370.865 356.865H254.549C244.657 356.865 235.234 352.65 228.64 345.277L133.464 238.855Z" fill="url(#paint11_linear_1_874)"/>
</g>
<g style="mix-blend-mode:plus-lighter" filter="url(#filter4_f_1_874)">
<path d="M125.7 191.035C108.215 171.484 122.092 140.456 148.321 140.456C156.958 140.456 165.185 144.136 170.943 150.573L274.007 265.816C291.492 285.367 277.615 316.394 251.386 316.395C242.749 316.395 234.522 312.715 228.765 306.277L125.7 191.035Z" fill="#1100FF"/>
</g>
<g style="mix-blend-mode:plus-lighter" opacity="0.3" filter="url(#filter5_f_1_874)">
<path d="M105.226 254.305C101.164 249.779 104.376 242.581 110.457 242.581C112.453 242.581 114.355 243.43 115.689 244.916L210.143 350.172C214.204 354.697 210.992 361.895 204.911 361.895C202.915 361.895 201.013 361.047 199.68 359.561L105.226 254.305Z" fill="url(#paint12_linear_1_874)"/>
</g>
<g style="mix-blend-mode:plus-lighter" opacity="0.3" filter="url(#filter6_f_1_874)">
<path d="M144.657 254.305C140.595 249.779 143.807 242.581 149.888 242.581C151.884 242.581 153.787 243.43 155.12 244.916L249.574 350.172C253.635 354.697 250.423 361.895 244.342 361.895C242.346 361.895 240.444 361.047 239.111 359.561L144.657 254.305Z" fill="url(#paint13_linear_1_874)"/>
</g>
</g>
<g style="mix-blend-mode:plus-lighter" opacity="0.7">
<path d="M119.852 342.24V317.544H122.983V342.24H119.852ZM127.664 321.451C126.049 321.451 125.436 320.87 125.436 319.223C125.436 317.577 126.179 316.996 127.664 316.996C129.149 316.996 129.859 317.577 129.859 319.223C129.859 320.837 129.149 321.451 127.664 321.451ZM126.017 342.24V323.807H129.213V342.24H126.017ZM135.313 342.24H132.149V323.807H134.796L135.119 328.004C136.12 325.163 138.347 323.291 141.866 323.291C146.612 323.291 149.065 326.358 149.065 331.039V342.24H145.902V331.749C145.902 328.295 144.513 326.035 140.93 326.035C137.282 326.035 135.313 328.65 135.313 332.588V342.24ZM159.301 332.685L154.717 337.463V342.24H151.714V317.544H154.717V334.073L155.169 333.524L164.595 323.807H168.533L161.69 330.877L168.921 342.24H165.305L159.301 332.685ZM187.39 336.623H183.226V342.24H180.094V336.623H167.892V334.364L180.449 319.288H183.226V333.944H187.39V336.623ZM180.094 333.944V323.743L171.507 333.944H180.094ZM196.993 342.725C191.15 342.725 187.792 339.271 187.792 333.331V332.911C187.792 330.845 188.212 329.166 189.019 327.681C190.633 324.84 193.506 323.291 197.025 323.291C201.9 323.291 205.322 325.68 205.871 330.813V330.877H202.61V330.813C202.093 327.52 200.092 326.002 197.057 326.002C193.506 326.002 191.021 328.456 191.021 332.911V333.266C191.021 337.463 193.248 339.916 197.025 339.916C200.221 339.916 202.093 338.302 202.642 335.106V335.074H205.903V335.138C205.354 340.368 201.932 342.725 196.993 342.725ZM216.273 342.725C210.398 342.725 207.041 339.271 207.041 333.331V332.911C207.041 330.845 207.46 329.166 208.235 327.681C209.849 324.84 212.722 323.291 216.273 323.291C218.081 323.291 219.663 323.678 221.051 324.453C223.86 325.97 225.506 328.843 225.506 332.911V333.331C225.506 335.332 225.119 336.978 224.376 338.399C222.827 341.207 220.051 342.725 216.273 342.725ZM216.273 339.916C220.115 339.916 222.31 337.463 222.31 333.266V332.911C222.31 328.617 219.857 326.002 216.273 326.002C212.722 326.002 210.237 328.456 210.237 332.911V333.266C210.237 337.463 212.464 339.916 216.273 339.916ZM242.028 337.915C240.995 340.691 238.67 342.66 235.087 342.66C233.473 342.66 232.085 342.305 230.826 341.563C228.372 340.045 226.92 337.204 226.92 333.137V332.717C226.92 330.716 227.275 329.037 227.953 327.617C229.373 324.808 231.956 323.323 235.281 323.323C238.606 323.323 240.866 324.937 241.931 327.487V317.544H244.965V342.24H242.383L242.028 337.915ZM235.926 339.916C237.185 339.916 238.283 339.593 239.187 339.045C241.059 337.882 242.06 335.752 242.06 333.072V332.846C242.06 331.458 241.834 330.296 241.35 329.263C240.414 327.197 238.606 325.97 236.152 325.97C232.246 325.97 230.148 328.585 230.148 332.782V333.105C230.148 337.527 232.537 339.916 235.926 339.916ZM264.842 336.752C263.777 340.562 260.678 342.725 256.093 342.725C249.96 342.725 246.893 339.109 246.893 333.363V332.975C246.893 331.039 247.28 329.36 248.023 327.875C249.54 324.969 252.381 323.291 256.19 323.291C258.224 323.291 259.903 323.71 261.194 324.582C263.841 326.325 265.1 329.263 265.1 332.588V334.073H249.992C250.218 337.882 252.413 340.078 256.223 340.078C258.902 340.078 260.774 338.915 261.452 336.752H264.842ZM256.223 325.841C252.672 325.841 250.412 328.004 250.024 331.587H261.969C261.711 328.069 259.774 325.841 256.223 325.841ZM266.982 342.24V323.807H269.533L269.952 328.391C270.727 325.325 272.825 323.678 276.635 323.678H277.765V326.842H276.215C274.665 326.842 273.406 327.068 272.535 327.552C270.727 328.553 270.081 330.457 270.081 333.621V342.24H266.982ZM286.305 342.725C281.076 342.725 278.073 340.497 277.557 336.204H280.947C281.334 338.851 283.465 340.045 286.37 340.045C289.792 340.045 291.051 338.657 291.051 336.914C291.051 336.171 290.793 335.655 290.276 335.3C289.211 334.557 287.403 334.299 285.466 334.041C283.787 333.783 282.044 333.46 280.656 332.782C279.268 332.039 278.364 330.877 278.364 328.876C278.364 327.843 278.622 326.906 279.139 326.099C280.236 324.356 282.367 323.291 285.692 323.291C290.696 323.291 293.278 325.551 293.763 329.134H290.567C290.276 326.939 288.63 325.841 285.66 325.841C282.496 325.841 281.463 327.197 281.463 328.714C281.463 329.392 281.721 329.941 282.27 330.328C283.368 331.006 285.143 331.264 287.08 331.555C288.759 331.813 290.502 332.136 291.89 332.814C293.278 333.557 294.15 334.686 294.15 336.72C294.15 337.85 293.86 338.851 293.311 339.755C292.181 341.563 289.953 342.725 286.305 342.725ZM294.023 342.24L300.77 319.288H304.225L297.478 342.24H294.023ZM304.05 349.02V346.276H305.664C306.697 346.276 307.44 346.179 308.053 346.018C309.215 345.63 309.893 344.726 310.797 342.725L311.152 341.853L303.275 323.807H306.633L312.669 338.076L312.702 338.205L312.734 338.044L318.642 323.807H321.934L313.638 343.241C312.572 345.759 311.765 347.212 310.668 348.019C309.538 348.794 308.085 349.02 305.632 349.02H304.05ZM330.615 342.725C324.739 342.725 321.382 339.271 321.382 333.331V332.911C321.382 330.845 321.802 329.166 322.576 327.681C324.191 324.84 327.064 323.291 330.615 323.291C332.423 323.291 334.004 323.678 335.393 324.453C338.201 325.97 339.847 328.843 339.847 332.911V333.331C339.847 335.332 339.46 336.978 338.718 338.399C337.168 341.207 334.392 342.725 330.615 342.725ZM330.615 339.916C334.456 339.916 336.652 337.463 336.652 333.266V332.911C336.652 328.617 334.198 326.002 330.615 326.002C327.064 326.002 324.578 328.456 324.578 332.911V333.266C324.578 337.463 326.805 339.916 330.615 339.916ZM354.894 338.27C353.958 340.917 351.762 342.66 348.47 342.66C343.886 342.66 341.626 339.69 341.626 334.977V323.807H344.757V334.202C344.757 337.527 346.016 339.852 349.438 339.852C352.763 339.852 354.7 337.204 354.7 333.395V323.807H357.832V342.24H355.217L354.894 338.27ZM360.751 342.24V323.807H363.301L363.721 328.391C364.496 325.325 366.594 323.678 370.403 323.678H371.533V326.842H369.984C368.434 326.842 367.175 327.068 366.304 327.552C364.496 328.553 363.85 330.457 363.85 333.621V342.24H360.751ZM376.101 342.24H372.938V323.807H375.585L375.908 328.004C376.908 325.163 379.136 323.291 382.655 323.291C387.4 323.291 389.854 326.358 389.854 331.039V342.24H386.69V331.749C386.69 328.295 385.302 326.035 381.718 326.035C378.071 326.035 376.101 328.65 376.101 332.588V342.24ZM405.709 337.656C404.417 340.497 401.576 342.725 397.477 342.725C393.506 342.725 391.44 340.788 391.44 337.818C391.44 335.881 392.344 334.331 393.829 333.427C394.345 333.072 394.862 332.846 395.41 332.62C396.54 332.233 398.09 331.91 400.543 331.555C403.804 331.071 405.579 330.78 405.579 329.037C405.579 327.035 404.256 325.776 400.802 325.776C397.154 325.776 395.378 327.552 395.217 330.135H392.021C392.118 328.779 392.537 327.617 393.215 326.584C394.636 324.517 397.154 323.291 400.672 323.291C406.419 323.291 408.614 325.712 408.614 329.521V342.24H406.064L405.709 337.656ZM398.445 340.239C400.576 340.239 402.351 339.4 403.61 338.044C404.901 336.688 405.612 335.074 405.612 333.524V332.168C404.805 332.846 403.255 333.201 401.221 333.557C398.413 333.976 397.218 334.299 396.185 334.977C395.314 335.526 394.862 336.333 394.862 337.43C394.862 339.174 396.024 340.239 398.445 340.239ZM414.503 342.24H411.371V323.807H414.018L414.309 327.52C415.245 324.969 417.344 323.291 420.443 323.291C423.865 323.291 425.769 324.905 426.544 327.584C427.416 324.905 429.579 323.291 432.807 323.291C437.294 323.291 439.618 326.164 439.618 330.877V342.24H436.487V331.652C436.487 328.327 435.163 326.035 431.774 326.035C428.578 326.035 427.093 328.327 427.093 331.49V342.24H423.994V331.426C423.994 330.425 423.832 329.554 423.574 328.746C422.961 327.1 421.734 326.035 419.442 326.035C416.214 326.035 414.503 328.553 414.503 332.265V342.24ZM459.392 336.752C458.327 340.562 455.228 342.725 450.644 342.725C444.51 342.725 441.443 339.109 441.443 333.363V332.975C441.443 331.039 441.831 329.36 442.573 327.875C444.09 324.969 446.931 323.291 450.741 323.291C452.774 323.291 454.453 323.71 455.744 324.582C458.392 326.325 459.651 329.263 459.651 332.588V334.073H444.542C444.768 337.882 446.964 340.078 450.773 340.078C453.452 340.078 455.325 338.915 456.003 336.752H459.392ZM450.773 325.841C447.222 325.841 444.962 328.004 444.575 331.587H456.519C456.261 328.069 454.324 325.841 450.773 325.841Z" fill="url(#paint14_linear_1_874)"/>
</g>
<defs>
<filter id="filter0_d_1_874" x="301.434" y="471.361" width="224.635" height="137.743" filterUnits="userSpaceOnUse" color-interpolation-filters="sRGB">
<feFlood flood-opacity="0" result="BackgroundImageFix"/>
<feColorMatrix in="SourceAlpha" type="matrix" values="0 0 0 0 0 0 0 0 0 0 0 0 0 0 0 0 0 0 127 0" result="hardAlpha"/>
<feOffset dy="4"/>
<feGaussianBlur stdDeviation="2"/>
<feComposite in2="hardAlpha" operator="out"/>
<feColorMatrix type="matrix" values="0 0 0 0 0 0 0 0 0 0 0 0 0 0 0 0 0 0 0.25 0"/>
<feBlend mode="normal" in2="BackgroundImageFix" result="effect1_dropShadow_1_874"/>
<feBlend mode="normal" in="SourceGraphic" in2="effect1_dropShadow_1_874" result="shape"/>
</filter>
<filter id="filter1_f_1_874" x="0.954308" y="206.161" width="576.822" height="251.868" filterUnits="userSpaceOnUse" color-interpolation-filters="sRGB">
<feFlood flood-opacity="0" result="BackgroundImageFix"/>
<feBlend mode="normal" in="SourceGraphic" in2="BackgroundImageFix" result="shape"/>
<feGaussianBlur stdDeviation="40.3513" result="effect1_foregroundBlur_1_874"/>
</filter>
<filter id="filter2_f_1_874" x="40.2344" y="245.441" width="498.262" height="173.308" filterUnits="userSpaceOnUse" color-interpolation-filters="sRGB">
<feFlood flood-opacity="0" result="BackgroundImageFix"/>
<feBlend mode="normal" in="SourceGraphic" in2="BackgroundImageFix" result="shape"/>
<feGaussianBlur stdDeviation="20.7113" result="effect1_foregroundBlur_1_874"/>
</filter>
<filter id="filter3_f_1_874" x="98.5976" y="154.978" width="333.042" height="227.836" filterUnits="userSpaceOnUse" color-interpolation-filters="sRGB">
<feFlood flood-opacity="0" result="BackgroundImageFix"/>
<feBlend mode="normal" in="SourceGraphic" in2="BackgroundImageFix" result="shape"/>
<feGaussianBlur stdDeviation="12.9743" result="effect1_foregroundBlur_1_874"/>
</filter>
<filter id="filter4_f_1_874" x="55.9379" y="78.4799" width="287.831" height="299.891" filterUnits="userSpaceOnUse" color-interpolation-filters="sRGB">
<feFlood flood-opacity="0" result="BackgroundImageFix"/>
<feBlend mode="normal" in="SourceGraphic" in2="BackgroundImageFix" result="shape"/>
<feGaussianBlur stdDeviation="30.9881" result="effect1_foregroundBlur_1_874"/>
</filter>
<filter id="filter5_f_1_874" x="92.4297" y="231.597" width="130.509" height="141.283" filterUnits="userSpaceOnUse" color-interpolation-filters="sRGB">
<feFlood flood-opacity="0" result="BackgroundImageFix"/>
<feBlend mode="normal" in="SourceGraphic" in2="BackgroundImageFix" result="shape"/>
<feGaussianBlur stdDeviation="5.49219" result="effect1_foregroundBlur_1_874"/>
</filter>
<filter id="filter6_f_1_874" x="131.861" y="231.597" width="130.509" height="141.283" filterUnits="userSpaceOnUse" color-interpolation-filters="sRGB">
<feFlood flood-opacity="0" result="BackgroundImageFix"/>
<feBlend mode="normal" in="SourceGraphic" in2="BackgroundImageFix" result="shape"/>
<feGaussianBlur stdDeviation="5.49219" result="effect1_foregroundBlur_1_874"/>
</filter>
<linearGradient id="paint0_linear_1_874" x1="164.383" y1="63.0862" x2="164.383" y2="192.829" gradientUnits="userSpaceOnUse">
<stop stop-color="#252529"/>
<stop offset="1" stop-color="#252529" stop-opacity="0"/>
</linearGradient>
<linearGradient id="paint1_linear_1_874" x1="104.273" y1="77.3699" x2="104.273" y2="119.329" gradientUnits="userSpaceOnUse">
<stop stop-color="#7C7C88"/>
<stop offset="1" stop-color="#28282B"/>
</linearGradient>
<linearGradient id="paint2_linear_1_874" x1="431.011" y1="92.844" x2="431.011" y2="222.587" gradientUnits="userSpaceOnUse">
<stop stop-color="#252529"/>
<stop offset="1" stop-color="#252529" stop-opacity="0"/>
</linearGradient>
<linearGradient id="paint3_linear_1_874" x1="368.52" y1="141.646" x2="368.52" y2="174.975" gradientUnits="userSpaceOnUse">
<stop stop-color="#7C7C88"/>
<stop offset="1" stop-color="#28282B"/>
</linearGradient>
<linearGradient id="paint4_linear_1_874" x1="152.48" y1="429.7" x2="152.48" y2="628.481" gradientUnits="userSpaceOnUse">
<stop stop-color="#252529"/>
<stop offset="1" stop-color="#252529" stop-opacity="0"/>
</linearGradient>
<linearGradient id="paint5_linear_1_874" x1="413.752" y1="471.361" x2="413.752" y2="601.104" gradientUnits="userSpaceOnUse">
<stop stop-color="#252529"/>
<stop offset="1" stop-color="#252529" stop-opacity="0"/>
</linearGradient>
<linearGradient id="paint6_linear_1_874" x1="352.406" y1="507.071" x2="352.406" y2="564.919" gradientUnits="userSpaceOnUse">
<stop stop-color="#7C7C88"/>
<stop offset="1" stop-color="#28282B"/>
</linearGradient>
<linearGradient id="paint7_linear_1_874" x1="497.073" y1="332.095" x2="81.657" y2="332.095" gradientUnits="userSpaceOnUse">
<stop stop-color="#54E0FF"/>
<stop offset="1" stop-color="#29ADFF"/>
</linearGradient>
<linearGradient id="paint8_linear_1_874" x1="497.073" y1="332.095" x2="81.657" y2="332.095" gradientUnits="userSpaceOnUse">
<stop stop-color="#54E0FF"/>
<stop offset="1" stop-color="#29ADFF"/>
</linearGradient>
<linearGradient id="paint9_linear_1_874" x1="497.073" y1="332.095" x2="81.657" y2="332.095" gradientUnits="userSpaceOnUse">
<stop stop-color="#54E0FF"/>
<stop offset="1" stop-color="#29ADFF"/>
</linearGradient>
<linearGradient id="paint10_linear_1_874" x1="497.073" y1="332.095" x2="81.657" y2="332.095" gradientUnits="userSpaceOnUse">
<stop stop-color="#54E0FF"/>
<stop offset="1" stop-color="#29ADFF"/>
</linearGradient>
<linearGradient id="paint11_linear_1_874" x1="261.988" y1="291.625" x2="261.988" y2="357.092" gradientUnits="userSpaceOnUse">
<stop stop-color="#85DBFF"/>
<stop offset="1" stop-color="#85DBFF" stop-opacity="0"/>
</linearGradient>
<linearGradient id="paint12_linear_1_874" x1="157.684" y1="242.581" x2="157.684" y2="361.895" gradientUnits="userSpaceOnUse">
<stop stop-color="white"/>
<stop offset="1" stop-color="white" stop-opacity="0"/>
</linearGradient>
<linearGradient id="paint13_linear_1_874" x1="197.115" y1="242.581" x2="197.115" y2="361.895" gradientUnits="userSpaceOnUse">
<stop stop-color="white"/>
<stop offset="1" stop-color="white" stop-opacity="0"/>
</linearGradient>
<linearGradient id="paint14_linear_1_874" x1="117.366" y1="332.74" x2="461.366" y2="332.74" gradientUnits="userSpaceOnUse">
<stop stop-color="white"/>
<stop offset="1" stop-color="white" stop-opacity="0.5"/>
</linearGradient>
</defs>
</svg>
